<mxfile host="Electron" modified="2024-02-22T11:50:39.192Z" agent="Mozilla/5.0 (Windows NT 10.0; Win64; x64) AppleWebKit/537.36 (KHTML, like Gecko) draw.io/23.1.5 Chrome/120.0.6099.109 Electron/28.1.0 Safari/537.36" etag="lidmGdBwxRduvn4QlneR" version="23.1.5" type="device" pages="3">
  <diagram name="Fill process" id="_3t-sUGNRvs4qYI7se1v">
    <mxGraphModel dx="2836" dy="1656" grid="1" gridSize="10" guides="1" tooltips="1" connect="1" arrows="1" fold="1" page="1" pageScale="1" pageWidth="827" pageHeight="1169" math="0" shadow="0">
      <root>
        <mxCell id="0" />
        <mxCell id="1" parent="0" />
        <mxCell id="BcTsUivfGt-5EZSGSPdi-13" value="" style="rounded=0;whiteSpace=wrap;html=1;" vertex="1" parent="1">
          <mxGeometry x="700" y="1399" width="120" height="151" as="geometry" />
        </mxCell>
        <mxCell id="BcTsUivfGt-5EZSGSPdi-7" value="" style="rounded=0;whiteSpace=wrap;html=1;" vertex="1" parent="1">
          <mxGeometry x="870" y="1169" width="120" height="151" as="geometry" />
        </mxCell>
        <mxCell id="BcTsUivfGt-5EZSGSPdi-4" value="" style="rounded=0;whiteSpace=wrap;html=1;" vertex="1" parent="1">
          <mxGeometry x="680" y="1169" width="120" height="151" as="geometry" />
        </mxCell>
        <mxCell id="krKrzM0fU8PKZaGyO-Va-116" value="" style="rounded=0;whiteSpace=wrap;html=1;" parent="1" vertex="1">
          <mxGeometry x="510" y="1400" width="120" height="150" as="geometry" />
        </mxCell>
        <mxCell id="krKrzM0fU8PKZaGyO-Va-113" value="" style="rounded=0;whiteSpace=wrap;html=1;" parent="1" vertex="1">
          <mxGeometry x="510" y="1169" width="120" height="151" as="geometry" />
        </mxCell>
        <mxCell id="krKrzM0fU8PKZaGyO-Va-106" value="" style="rounded=0;whiteSpace=wrap;html=1;" parent="1" vertex="1">
          <mxGeometry x="307" y="1405" width="120" height="145" as="geometry" />
        </mxCell>
        <mxCell id="krKrzM0fU8PKZaGyO-Va-86" value="" style="rounded=0;whiteSpace=wrap;html=1;" parent="1" vertex="1">
          <mxGeometry x="325" y="970" width="120" height="150" as="geometry" />
        </mxCell>
        <mxCell id="krKrzM0fU8PKZaGyO-Va-81" value="" style="rounded=0;whiteSpace=wrap;html=1;" parent="1" vertex="1">
          <mxGeometry x="325" y="1170" width="120" height="150" as="geometry" />
        </mxCell>
        <mxCell id="krKrzM0fU8PKZaGyO-Va-67" value="" style="rounded=0;whiteSpace=wrap;html=1;" parent="1" vertex="1">
          <mxGeometry x="630" y="760" width="120" height="170" as="geometry" />
        </mxCell>
        <mxCell id="krKrzM0fU8PKZaGyO-Va-63" value="" style="rounded=0;whiteSpace=wrap;html=1;" parent="1" vertex="1">
          <mxGeometry x="440" y="760" width="120" height="170" as="geometry" />
        </mxCell>
        <mxCell id="krKrzM0fU8PKZaGyO-Va-60" value="" style="rounded=0;whiteSpace=wrap;html=1;" parent="1" vertex="1">
          <mxGeometry x="240" y="760" width="120" height="170" as="geometry" />
        </mxCell>
        <mxCell id="krKrzM0fU8PKZaGyO-Va-50" value="" style="rounded=0;whiteSpace=wrap;html=1;" parent="1" vertex="1">
          <mxGeometry x="780" y="525" width="120" height="145" as="geometry" />
        </mxCell>
        <mxCell id="krKrzM0fU8PKZaGyO-Va-39" value="" style="rounded=0;whiteSpace=wrap;html=1;" parent="1" vertex="1">
          <mxGeometry x="270" y="525" width="120" height="180" as="geometry" />
        </mxCell>
        <mxCell id="krKrzM0fU8PKZaGyO-Va-37" value="" style="rounded=0;whiteSpace=wrap;html=1;" parent="1" vertex="1">
          <mxGeometry x="110" y="525" width="120" height="175" as="geometry" />
        </mxCell>
        <mxCell id="krKrzM0fU8PKZaGyO-Va-1" value="" style="shape=cylinder3;whiteSpace=wrap;html=1;boundedLbl=1;backgroundOutline=1;size=15;rotation=90;" parent="1" vertex="1">
          <mxGeometry x="110" y="160" width="60" height="80" as="geometry" />
        </mxCell>
        <mxCell id="krKrzM0fU8PKZaGyO-Va-2" value="" style="shape=cylinder3;whiteSpace=wrap;html=1;boundedLbl=1;backgroundOutline=1;size=15;rotation=90;" parent="1" vertex="1">
          <mxGeometry x="110" y="270" width="60" height="80" as="geometry" />
        </mxCell>
        <mxCell id="krKrzM0fU8PKZaGyO-Va-3" value="He" style="text;html=1;strokeColor=none;fillColor=none;align=center;verticalAlign=middle;whiteSpace=wrap;rounded=0;" parent="1" vertex="1">
          <mxGeometry x="100" y="185" width="60" height="30" as="geometry" />
        </mxCell>
        <mxCell id="krKrzM0fU8PKZaGyO-Va-4" value="N2O&lt;br&gt;" style="text;html=1;strokeColor=none;fillColor=none;align=center;verticalAlign=middle;whiteSpace=wrap;rounded=0;" parent="1" vertex="1">
          <mxGeometry x="100" y="300" width="60" height="30" as="geometry" />
        </mxCell>
        <mxCell id="krKrzM0fU8PKZaGyO-Va-7" value="" style="rounded=0;whiteSpace=wrap;html=1;" parent="1" vertex="1">
          <mxGeometry x="240" y="195" width="20" height="10" as="geometry" />
        </mxCell>
        <mxCell id="krKrzM0fU8PKZaGyO-Va-8" value="" style="rounded=0;whiteSpace=wrap;html=1;" parent="1" vertex="1">
          <mxGeometry x="240" y="305" width="20" height="10" as="geometry" />
        </mxCell>
        <mxCell id="krKrzM0fU8PKZaGyO-Va-13" value="" style="endArrow=none;html=1;rounded=0;exitX=0.5;exitY=0;exitDx=0;exitDy=0;exitPerimeter=0;entryX=0;entryY=0.5;entryDx=0;entryDy=0;" parent="1" source="krKrzM0fU8PKZaGyO-Va-1" target="krKrzM0fU8PKZaGyO-Va-7" edge="1">
          <mxGeometry width="50" height="50" relative="1" as="geometry">
            <mxPoint x="330" y="310" as="sourcePoint" />
            <mxPoint x="380" y="260" as="targetPoint" />
          </mxGeometry>
        </mxCell>
        <mxCell id="krKrzM0fU8PKZaGyO-Va-14" value="" style="endArrow=none;html=1;rounded=0;exitX=0.5;exitY=0;exitDx=0;exitDy=0;exitPerimeter=0;entryX=0;entryY=0.5;entryDx=0;entryDy=0;" parent="1" source="krKrzM0fU8PKZaGyO-Va-2" target="krKrzM0fU8PKZaGyO-Va-8" edge="1">
          <mxGeometry width="50" height="50" relative="1" as="geometry">
            <mxPoint x="330" y="310" as="sourcePoint" />
            <mxPoint x="380" y="260" as="targetPoint" />
          </mxGeometry>
        </mxCell>
        <mxCell id="krKrzM0fU8PKZaGyO-Va-15" value="V1&lt;br&gt;" style="text;html=1;strokeColor=none;fillColor=none;align=center;verticalAlign=middle;whiteSpace=wrap;rounded=0;" parent="1" vertex="1">
          <mxGeometry x="220" y="175" width="60" height="30" as="geometry" />
        </mxCell>
        <mxCell id="krKrzM0fU8PKZaGyO-Va-16" value="V2" style="text;html=1;strokeColor=none;fillColor=none;align=center;verticalAlign=middle;whiteSpace=wrap;rounded=0;" parent="1" vertex="1">
          <mxGeometry x="220" y="285" width="60" height="30" as="geometry" />
        </mxCell>
        <mxCell id="krKrzM0fU8PKZaGyO-Va-18" value="" style="endArrow=none;html=1;rounded=0;exitX=1;exitY=0.5;exitDx=0;exitDy=0;" parent="1" source="krKrzM0fU8PKZaGyO-Va-7" edge="1">
          <mxGeometry width="50" height="50" relative="1" as="geometry">
            <mxPoint x="350" y="210" as="sourcePoint" />
            <mxPoint x="320" y="200" as="targetPoint" />
          </mxGeometry>
        </mxCell>
        <mxCell id="krKrzM0fU8PKZaGyO-Va-19" value="" style="endArrow=none;html=1;rounded=0;exitX=1;exitY=0.5;exitDx=0;exitDy=0;" parent="1" source="krKrzM0fU8PKZaGyO-Va-8" edge="1">
          <mxGeometry width="50" height="50" relative="1" as="geometry">
            <mxPoint x="330" y="310" as="sourcePoint" />
            <mxPoint x="320" y="200" as="targetPoint" />
            <Array as="points">
              <mxPoint x="320" y="310" />
            </Array>
          </mxGeometry>
        </mxCell>
        <mxCell id="krKrzM0fU8PKZaGyO-Va-20" value="" style="endArrow=none;html=1;rounded=0;entryX=1;entryY=0.5;entryDx=0;entryDy=0;" parent="1" target="krKrzM0fU8PKZaGyO-Va-21" edge="1">
          <mxGeometry width="50" height="50" relative="1" as="geometry">
            <mxPoint x="316" y="200" as="sourcePoint" />
            <mxPoint x="407" y="175" as="targetPoint" />
            <Array as="points">
              <mxPoint x="411" y="200" />
            </Array>
          </mxGeometry>
        </mxCell>
        <mxCell id="krKrzM0fU8PKZaGyO-Va-21" value="" style="rounded=0;whiteSpace=wrap;html=1;rotation=90;" parent="1" vertex="1">
          <mxGeometry x="401" y="160" width="20" height="10" as="geometry" />
        </mxCell>
        <mxCell id="krKrzM0fU8PKZaGyO-Va-22" value="" style="shape=cylinder3;whiteSpace=wrap;html=1;boundedLbl=1;backgroundOutline=1;size=15;" parent="1" vertex="1">
          <mxGeometry x="490" y="195" width="60" height="165" as="geometry" />
        </mxCell>
        <mxCell id="krKrzM0fU8PKZaGyO-Va-23" value="" style="rounded=0;whiteSpace=wrap;html=1;rotation=90;" parent="1" vertex="1">
          <mxGeometry x="510" y="160" width="20" height="10" as="geometry" />
        </mxCell>
        <mxCell id="krKrzM0fU8PKZaGyO-Va-24" value="" style="endArrow=none;html=1;rounded=0;exitX=0.5;exitY=0;exitDx=0;exitDy=0;exitPerimeter=0;entryX=1;entryY=0.5;entryDx=0;entryDy=0;" parent="1" source="krKrzM0fU8PKZaGyO-Va-22" target="krKrzM0fU8PKZaGyO-Va-23" edge="1">
          <mxGeometry width="50" height="50" relative="1" as="geometry">
            <mxPoint x="380" y="320" as="sourcePoint" />
            <mxPoint x="430" y="270" as="targetPoint" />
          </mxGeometry>
        </mxCell>
        <mxCell id="krKrzM0fU8PKZaGyO-Va-25" value="" style="endArrow=none;html=1;rounded=0;exitX=0;exitY=0.5;exitDx=0;exitDy=0;" parent="1" source="krKrzM0fU8PKZaGyO-Va-23" edge="1">
          <mxGeometry width="50" height="50" relative="1" as="geometry">
            <mxPoint x="380" y="320" as="sourcePoint" />
            <mxPoint x="520" y="120" as="targetPoint" />
          </mxGeometry>
        </mxCell>
        <mxCell id="krKrzM0fU8PKZaGyO-Va-26" value="Vpu" style="text;html=1;strokeColor=none;fillColor=none;align=center;verticalAlign=middle;whiteSpace=wrap;rounded=0;" parent="1" vertex="1">
          <mxGeometry x="510" y="150" width="60" height="30" as="geometry" />
        </mxCell>
        <mxCell id="krKrzM0fU8PKZaGyO-Va-27" value="" style="endArrow=none;html=1;rounded=0;exitX=0.5;exitY=1;exitDx=0;exitDy=0;exitPerimeter=0;" parent="1" source="krKrzM0fU8PKZaGyO-Va-22" edge="1">
          <mxGeometry width="50" height="50" relative="1" as="geometry">
            <mxPoint x="440" y="300" as="sourcePoint" />
            <mxPoint x="520" y="390" as="targetPoint" />
          </mxGeometry>
        </mxCell>
        <mxCell id="krKrzM0fU8PKZaGyO-Va-28" value="" style="rounded=0;whiteSpace=wrap;html=1;rotation=90;" parent="1" vertex="1">
          <mxGeometry x="510" y="390" width="20" height="10" as="geometry" />
        </mxCell>
        <mxCell id="krKrzM0fU8PKZaGyO-Va-30" value="V3&lt;br&gt;" style="text;html=1;strokeColor=none;fillColor=none;align=center;verticalAlign=middle;whiteSpace=wrap;rounded=0;" parent="1" vertex="1">
          <mxGeometry x="365" y="150" width="60" height="30" as="geometry" />
        </mxCell>
        <mxCell id="krKrzM0fU8PKZaGyO-Va-31" value="V4&lt;br&gt;" style="text;html=1;strokeColor=none;fillColor=none;align=center;verticalAlign=middle;whiteSpace=wrap;rounded=0;" parent="1" vertex="1">
          <mxGeometry x="510" y="380" width="60" height="30" as="geometry" />
        </mxCell>
        <mxCell id="krKrzM0fU8PKZaGyO-Va-32" value="" style="endArrow=none;html=1;rounded=0;exitX=1;exitY=0.5;exitDx=0;exitDy=0;" parent="1" source="krKrzM0fU8PKZaGyO-Va-28" edge="1">
          <mxGeometry width="50" height="50" relative="1" as="geometry">
            <mxPoint x="440" y="300" as="sourcePoint" />
            <mxPoint x="520" y="430" as="targetPoint" />
          </mxGeometry>
        </mxCell>
        <mxCell id="krKrzM0fU8PKZaGyO-Va-35" style="edgeStyle=orthogonalEdgeStyle;rounded=0;orthogonalLoop=1;jettySize=auto;html=1;exitX=1;exitY=0.5;exitDx=0;exitDy=0;entryX=0;entryY=0.5;entryDx=0;entryDy=0;" parent="1" source="krKrzM0fU8PKZaGyO-Va-33" target="krKrzM0fU8PKZaGyO-Va-34" edge="1">
          <mxGeometry relative="1" as="geometry" />
        </mxCell>
        <mxCell id="krKrzM0fU8PKZaGyO-Va-33" value="" style="ellipse;whiteSpace=wrap;html=1;aspect=fixed;" parent="1" vertex="1">
          <mxGeometry x="130" y="545" width="80" height="80" as="geometry" />
        </mxCell>
        <mxCell id="krKrzM0fU8PKZaGyO-Va-47" style="edgeStyle=orthogonalEdgeStyle;rounded=0;orthogonalLoop=1;jettySize=auto;html=1;exitX=1;exitY=0.5;exitDx=0;exitDy=0;entryX=0;entryY=0.5;entryDx=0;entryDy=0;" parent="1" source="krKrzM0fU8PKZaGyO-Va-34" target="krKrzM0fU8PKZaGyO-Va-42" edge="1">
          <mxGeometry relative="1" as="geometry" />
        </mxCell>
        <mxCell id="krKrzM0fU8PKZaGyO-Va-34" value="" style="ellipse;whiteSpace=wrap;html=1;aspect=fixed;" parent="1" vertex="1">
          <mxGeometry x="290" y="545" width="80" height="80" as="geometry" />
        </mxCell>
        <mxCell id="krKrzM0fU8PKZaGyO-Va-36" value="Pre INIT" style="text;html=1;strokeColor=none;fillColor=none;align=center;verticalAlign=middle;whiteSpace=wrap;rounded=0;" parent="1" vertex="1">
          <mxGeometry x="140" y="495" width="60" height="30" as="geometry" />
        </mxCell>
        <mxCell id="krKrzM0fU8PKZaGyO-Va-38" value="Ensure v1, v2, v3, v4, vpu are closed&lt;br&gt;use voltimeter to check" style="text;html=1;strokeColor=none;fillColor=none;align=center;verticalAlign=middle;whiteSpace=wrap;rounded=0;" parent="1" vertex="1">
          <mxGeometry x="120" y="640" width="100" height="30" as="geometry" />
        </mxCell>
        <mxCell id="krKrzM0fU8PKZaGyO-Va-40" value="INIT" style="text;html=1;strokeColor=none;fillColor=none;align=center;verticalAlign=middle;whiteSpace=wrap;rounded=0;" parent="1" vertex="1">
          <mxGeometry x="300" y="495" width="60" height="30" as="geometry" />
        </mxCell>
        <mxCell id="krKrzM0fU8PKZaGyO-Va-41" value="Open He &amp;amp; N2O bottles" style="text;html=1;strokeColor=none;fillColor=none;align=center;verticalAlign=middle;whiteSpace=wrap;rounded=0;" parent="1" vertex="1">
          <mxGeometry x="300" y="640" width="60" height="30" as="geometry" />
        </mxCell>
        <mxCell id="krKrzM0fU8PKZaGyO-Va-45" style="edgeStyle=orthogonalEdgeStyle;rounded=0;orthogonalLoop=1;jettySize=auto;html=1;exitX=1;exitY=0.5;exitDx=0;exitDy=0;entryX=0;entryY=0.5;entryDx=0;entryDy=0;" parent="1" source="krKrzM0fU8PKZaGyO-Va-42" target="krKrzM0fU8PKZaGyO-Va-43" edge="1">
          <mxGeometry relative="1" as="geometry" />
        </mxCell>
        <mxCell id="krKrzM0fU8PKZaGyO-Va-42" value="Stage 1" style="ellipse;whiteSpace=wrap;html=1;aspect=fixed;" parent="1" vertex="1">
          <mxGeometry x="440" y="545" width="80" height="80" as="geometry" />
        </mxCell>
        <mxCell id="krKrzM0fU8PKZaGyO-Va-46" style="edgeStyle=orthogonalEdgeStyle;rounded=0;orthogonalLoop=1;jettySize=auto;html=1;exitX=1;exitY=0.5;exitDx=0;exitDy=0;entryX=0;entryY=0.5;entryDx=0;entryDy=0;" parent="1" source="krKrzM0fU8PKZaGyO-Va-43" target="krKrzM0fU8PKZaGyO-Va-44" edge="1">
          <mxGeometry relative="1" as="geometry" />
        </mxCell>
        <mxCell id="krKrzM0fU8PKZaGyO-Va-43" value="Stage 2" style="ellipse;whiteSpace=wrap;html=1;aspect=fixed;" parent="1" vertex="1">
          <mxGeometry x="560" y="545" width="80" height="80" as="geometry" />
        </mxCell>
        <mxCell id="krKrzM0fU8PKZaGyO-Va-49" style="edgeStyle=orthogonalEdgeStyle;rounded=0;orthogonalLoop=1;jettySize=auto;html=1;exitX=1;exitY=0.5;exitDx=0;exitDy=0;entryX=0;entryY=0.5;entryDx=0;entryDy=0;" parent="1" source="krKrzM0fU8PKZaGyO-Va-44" target="krKrzM0fU8PKZaGyO-Va-48" edge="1">
          <mxGeometry relative="1" as="geometry" />
        </mxCell>
        <mxCell id="krKrzM0fU8PKZaGyO-Va-44" value="Stage 3" style="ellipse;whiteSpace=wrap;html=1;aspect=fixed;" parent="1" vertex="1">
          <mxGeometry x="680" y="545" width="80" height="80" as="geometry" />
        </mxCell>
        <mxCell id="krKrzM0fU8PKZaGyO-Va-48" value="" style="ellipse;whiteSpace=wrap;html=1;aspect=fixed;strokeColor=#FF0000;" parent="1" vertex="1">
          <mxGeometry x="800" y="545" width="80" height="80" as="geometry" />
        </mxCell>
        <mxCell id="krKrzM0fU8PKZaGyO-Va-51" value="Rocket fueled and pressurized" style="text;html=1;strokeColor=none;fillColor=none;align=center;verticalAlign=middle;whiteSpace=wrap;rounded=0;" parent="1" vertex="1">
          <mxGeometry x="795" y="640" width="90" height="30" as="geometry" />
        </mxCell>
        <mxCell id="krKrzM0fU8PKZaGyO-Va-53" value="Purge the system with He" style="text;html=1;strokeColor=none;fillColor=none;align=center;verticalAlign=middle;whiteSpace=wrap;rounded=0;" parent="1" vertex="1">
          <mxGeometry x="450" y="640" width="60" height="30" as="geometry" />
        </mxCell>
        <mxCell id="krKrzM0fU8PKZaGyO-Va-54" value="Get X litters of N2O in the tank" style="text;html=1;strokeColor=none;fillColor=none;align=center;verticalAlign=middle;whiteSpace=wrap;rounded=0;" parent="1" vertex="1">
          <mxGeometry x="570" y="650" width="60" height="30" as="geometry" />
        </mxCell>
        <mxCell id="krKrzM0fU8PKZaGyO-Va-55" value="Get tank to Y bar of pressure with He" style="text;html=1;strokeColor=none;fillColor=none;align=center;verticalAlign=middle;whiteSpace=wrap;rounded=0;" parent="1" vertex="1">
          <mxGeometry x="690" y="650" width="60" height="30" as="geometry" />
        </mxCell>
        <mxCell id="krKrzM0fU8PKZaGyO-Va-58" style="edgeStyle=orthogonalEdgeStyle;rounded=0;orthogonalLoop=1;jettySize=auto;html=1;exitX=1;exitY=0.5;exitDx=0;exitDy=0;entryX=0;entryY=0.5;entryDx=0;entryDy=0;" parent="1" source="krKrzM0fU8PKZaGyO-Va-56" target="krKrzM0fU8PKZaGyO-Va-57" edge="1">
          <mxGeometry relative="1" as="geometry" />
        </mxCell>
        <mxCell id="krKrzM0fU8PKZaGyO-Va-56" value="Stage 1" style="ellipse;whiteSpace=wrap;html=1;aspect=fixed;" parent="1" vertex="1">
          <mxGeometry x="120" y="780" width="80" height="80" as="geometry" />
        </mxCell>
        <mxCell id="krKrzM0fU8PKZaGyO-Va-62" style="edgeStyle=orthogonalEdgeStyle;rounded=0;orthogonalLoop=1;jettySize=auto;html=1;exitX=1;exitY=0.5;exitDx=0;exitDy=0;entryX=0;entryY=0.5;entryDx=0;entryDy=0;" parent="1" source="krKrzM0fU8PKZaGyO-Va-57" target="krKrzM0fU8PKZaGyO-Va-61" edge="1">
          <mxGeometry relative="1" as="geometry" />
        </mxCell>
        <mxCell id="krKrzM0fU8PKZaGyO-Va-57" value="" style="ellipse;whiteSpace=wrap;html=1;aspect=fixed;" parent="1" vertex="1">
          <mxGeometry x="260" y="780" width="80" height="80" as="geometry" />
        </mxCell>
        <mxCell id="krKrzM0fU8PKZaGyO-Va-59" value="Open V1" style="text;html=1;strokeColor=none;fillColor=none;align=center;verticalAlign=middle;whiteSpace=wrap;rounded=0;" parent="1" vertex="1">
          <mxGeometry x="250" y="870" width="90" height="30" as="geometry" />
        </mxCell>
        <mxCell id="krKrzM0fU8PKZaGyO-Va-70" style="edgeStyle=orthogonalEdgeStyle;rounded=0;orthogonalLoop=1;jettySize=auto;html=1;exitX=1;exitY=0.5;exitDx=0;exitDy=0;entryX=0;entryY=0.5;entryDx=0;entryDy=0;" parent="1" source="krKrzM0fU8PKZaGyO-Va-61" target="krKrzM0fU8PKZaGyO-Va-68" edge="1">
          <mxGeometry relative="1" as="geometry" />
        </mxCell>
        <mxCell id="krKrzM0fU8PKZaGyO-Va-61" value="" style="ellipse;whiteSpace=wrap;html=1;aspect=fixed;" parent="1" vertex="1">
          <mxGeometry x="460" y="780" width="80" height="80" as="geometry" />
        </mxCell>
        <mxCell id="krKrzM0fU8PKZaGyO-Va-64" value="P &amp;gt; 5.5 bar" style="text;html=1;strokeColor=none;fillColor=none;align=center;verticalAlign=middle;whiteSpace=wrap;rounded=0;" parent="1" vertex="1">
          <mxGeometry x="370" y="790" width="60" height="30" as="geometry" />
        </mxCell>
        <mxCell id="krKrzM0fU8PKZaGyO-Va-65" value="P is the pressure in the tank&lt;br&gt;L is the litters of N2O in the tank" style="text;html=1;strokeColor=none;fillColor=none;align=center;verticalAlign=middle;whiteSpace=wrap;rounded=0;" parent="1" vertex="1">
          <mxGeometry x="560" y="262.5" width="130" height="30" as="geometry" />
        </mxCell>
        <mxCell id="krKrzM0fU8PKZaGyO-Va-66" value="Close V1&lt;br&gt;Open Vpu" style="text;html=1;strokeColor=none;fillColor=none;align=center;verticalAlign=middle;whiteSpace=wrap;rounded=0;" parent="1" vertex="1">
          <mxGeometry x="470" y="880" width="60" height="30" as="geometry" />
        </mxCell>
        <mxCell id="krKrzM0fU8PKZaGyO-Va-73" style="edgeStyle=orthogonalEdgeStyle;rounded=0;orthogonalLoop=1;jettySize=auto;html=1;exitX=1;exitY=0.5;exitDx=0;exitDy=0;entryX=0;entryY=0.5;entryDx=0;entryDy=0;" parent="1" source="krKrzM0fU8PKZaGyO-Va-68" target="krKrzM0fU8PKZaGyO-Va-72" edge="1">
          <mxGeometry relative="1" as="geometry" />
        </mxCell>
        <mxCell id="krKrzM0fU8PKZaGyO-Va-68" value="" style="ellipse;whiteSpace=wrap;html=1;aspect=fixed;" parent="1" vertex="1">
          <mxGeometry x="650" y="780" width="80" height="80" as="geometry" />
        </mxCell>
        <mxCell id="krKrzM0fU8PKZaGyO-Va-69" value="Close Vpu" style="text;html=1;strokeColor=none;fillColor=none;align=center;verticalAlign=middle;whiteSpace=wrap;rounded=0;" parent="1" vertex="1">
          <mxGeometry x="660" y="880" width="60" height="30" as="geometry" />
        </mxCell>
        <mxCell id="krKrzM0fU8PKZaGyO-Va-71" value="P &amp;lt;= 5 bar" style="text;html=1;strokeColor=none;fillColor=none;align=center;verticalAlign=middle;whiteSpace=wrap;rounded=0;" parent="1" vertex="1">
          <mxGeometry x="565" y="790" width="60" height="30" as="geometry" />
        </mxCell>
        <mxCell id="krKrzM0fU8PKZaGyO-Va-72" value="Stage 1 Done" style="ellipse;whiteSpace=wrap;html=1;aspect=fixed;strokeColor=#FF0000;" parent="1" vertex="1">
          <mxGeometry x="805" y="780" width="80" height="80" as="geometry" />
        </mxCell>
        <mxCell id="krKrzM0fU8PKZaGyO-Va-97" style="edgeStyle=orthogonalEdgeStyle;rounded=0;orthogonalLoop=1;jettySize=auto;html=1;exitX=1;exitY=0.5;exitDx=0;exitDy=0;entryX=0;entryY=0.5;entryDx=0;entryDy=0;" parent="1" source="krKrzM0fU8PKZaGyO-Va-74" target="krKrzM0fU8PKZaGyO-Va-80" edge="1">
          <mxGeometry relative="1" as="geometry" />
        </mxCell>
        <mxCell id="krKrzM0fU8PKZaGyO-Va-74" value="Stage 2" style="ellipse;whiteSpace=wrap;html=1;aspect=fixed;" parent="1" vertex="1">
          <mxGeometry x="115" y="1190" width="80" height="80" as="geometry" />
        </mxCell>
        <mxCell id="krKrzM0fU8PKZaGyO-Va-78" value="Check v1, Vpu are closed" style="text;html=1;strokeColor=none;fillColor=none;align=center;verticalAlign=middle;whiteSpace=wrap;rounded=0;" parent="1" vertex="1">
          <mxGeometry x="205" y="1190" width="85" height="30" as="geometry" />
        </mxCell>
        <mxCell id="krKrzM0fU8PKZaGyO-Va-79" value="(Tank pressure needs to be stable)" style="text;html=1;strokeColor=none;fillColor=none;align=center;verticalAlign=middle;whiteSpace=wrap;rounded=0;" parent="1" vertex="1">
          <mxGeometry x="205" y="1240" width="85" height="30" as="geometry" />
        </mxCell>
        <mxCell id="krKrzM0fU8PKZaGyO-Va-111" style="edgeStyle=orthogonalEdgeStyle;rounded=0;orthogonalLoop=1;jettySize=auto;html=1;exitX=1;exitY=0.5;exitDx=0;exitDy=0;entryX=0;entryY=0.5;entryDx=0;entryDy=0;" parent="1" source="krKrzM0fU8PKZaGyO-Va-80" target="krKrzM0fU8PKZaGyO-Va-110" edge="1">
          <mxGeometry relative="1" as="geometry" />
        </mxCell>
        <mxCell id="krKrzM0fU8PKZaGyO-Va-80" value="" style="ellipse;whiteSpace=wrap;html=1;aspect=fixed;" parent="1" vertex="1">
          <mxGeometry x="345" y="1190" width="80" height="80" as="geometry" />
        </mxCell>
        <mxCell id="krKrzM0fU8PKZaGyO-Va-85" value="" style="ellipse;whiteSpace=wrap;html=1;aspect=fixed;" parent="1" vertex="1">
          <mxGeometry x="345" y="1020" width="80" height="80" as="geometry" />
        </mxCell>
        <mxCell id="krKrzM0fU8PKZaGyO-Va-87" value="" style="endArrow=classic;html=1;rounded=0;exitX=0;exitY=0;exitDx=0;exitDy=0;entryX=0;entryY=1;entryDx=0;entryDy=0;" parent="1" source="krKrzM0fU8PKZaGyO-Va-80" target="krKrzM0fU8PKZaGyO-Va-85" edge="1">
          <mxGeometry width="50" height="50" relative="1" as="geometry">
            <mxPoint x="300" y="1150" as="sourcePoint" />
            <mxPoint x="350" y="1100" as="targetPoint" />
          </mxGeometry>
        </mxCell>
        <mxCell id="krKrzM0fU8PKZaGyO-Va-89" value="" style="endArrow=classic;html=1;rounded=0;exitX=1;exitY=1;exitDx=0;exitDy=0;entryX=1;entryY=0;entryDx=0;entryDy=0;" parent="1" source="krKrzM0fU8PKZaGyO-Va-85" target="krKrzM0fU8PKZaGyO-Va-80" edge="1">
          <mxGeometry width="50" height="50" relative="1" as="geometry">
            <mxPoint x="300" y="1150" as="sourcePoint" />
            <mxPoint x="350" y="1100" as="targetPoint" />
          </mxGeometry>
        </mxCell>
        <mxCell id="krKrzM0fU8PKZaGyO-Va-90" value="Close Vpu&lt;br&gt;Open V2" style="text;html=1;strokeColor=none;fillColor=none;align=center;verticalAlign=middle;whiteSpace=wrap;rounded=0;" parent="1" vertex="1">
          <mxGeometry x="355" y="1280" width="60" height="30" as="geometry" />
        </mxCell>
        <mxCell id="krKrzM0fU8PKZaGyO-Va-91" value="Close V2&lt;br&gt;Open Vpu" style="text;html=1;strokeColor=none;fillColor=none;align=center;verticalAlign=middle;whiteSpace=wrap;rounded=0;" parent="1" vertex="1">
          <mxGeometry x="355" y="980" width="60" height="30" as="geometry" />
        </mxCell>
        <mxCell id="krKrzM0fU8PKZaGyO-Va-92" value="L &amp;lt; X&amp;nbsp;&lt;br&gt;and&amp;nbsp;&lt;br&gt;P &amp;gt; 40 bar" style="text;html=1;strokeColor=none;fillColor=none;align=center;verticalAlign=middle;whiteSpace=wrap;rounded=0;" parent="1" vertex="1">
          <mxGeometry x="290" y="1130" width="60" height="30" as="geometry" />
        </mxCell>
        <mxCell id="krKrzM0fU8PKZaGyO-Va-93" value="&lt;br&gt;P &amp;lt;= 35 bar" style="text;html=1;strokeColor=none;fillColor=none;align=center;verticalAlign=middle;whiteSpace=wrap;rounded=0;" parent="1" vertex="1">
          <mxGeometry x="410" y="1130" width="60" height="30" as="geometry" />
        </mxCell>
        <mxCell id="krKrzM0fU8PKZaGyO-Va-98" value="Stage 2 Done" style="ellipse;whiteSpace=wrap;html=1;aspect=fixed;strokeColor=#FF0000;" parent="1" vertex="1">
          <mxGeometry x="1050" y="1190" width="80" height="80" as="geometry" />
        </mxCell>
        <mxCell id="krKrzM0fU8PKZaGyO-Va-100" value="L &amp;gt;= X" style="text;html=1;strokeColor=none;fillColor=none;align=center;verticalAlign=middle;whiteSpace=wrap;rounded=0;" parent="1" vertex="1">
          <mxGeometry x="450" y="1200" width="60" height="30" as="geometry" />
        </mxCell>
        <mxCell id="krKrzM0fU8PKZaGyO-Va-103" style="edgeStyle=orthogonalEdgeStyle;rounded=0;orthogonalLoop=1;jettySize=auto;html=1;exitX=1;exitY=0.5;exitDx=0;exitDy=0;entryX=0;entryY=0.5;entryDx=0;entryDy=0;" parent="1" source="krKrzM0fU8PKZaGyO-Va-101" target="krKrzM0fU8PKZaGyO-Va-102" edge="1">
          <mxGeometry relative="1" as="geometry" />
        </mxCell>
        <mxCell id="krKrzM0fU8PKZaGyO-Va-101" value="Stage 3" style="ellipse;whiteSpace=wrap;html=1;aspect=fixed;" parent="1" vertex="1">
          <mxGeometry x="130" y="1420" width="80" height="80" as="geometry" />
        </mxCell>
        <mxCell id="krKrzM0fU8PKZaGyO-Va-109" style="edgeStyle=orthogonalEdgeStyle;rounded=0;orthogonalLoop=1;jettySize=auto;html=1;exitX=1;exitY=0.5;exitDx=0;exitDy=0;entryX=0;entryY=0.5;entryDx=0;entryDy=0;" parent="1" source="krKrzM0fU8PKZaGyO-Va-102" target="krKrzM0fU8PKZaGyO-Va-108" edge="1">
          <mxGeometry relative="1" as="geometry" />
        </mxCell>
        <mxCell id="krKrzM0fU8PKZaGyO-Va-102" value="" style="ellipse;whiteSpace=wrap;html=1;aspect=fixed;" parent="1" vertex="1">
          <mxGeometry x="327" y="1420" width="80" height="80" as="geometry" />
        </mxCell>
        <mxCell id="krKrzM0fU8PKZaGyO-Va-104" value="Check V2 Vpu closed" style="text;html=1;strokeColor=none;fillColor=none;align=center;verticalAlign=middle;whiteSpace=wrap;rounded=0;" parent="1" vertex="1">
          <mxGeometry x="220" y="1420" width="80" height="30" as="geometry" />
        </mxCell>
        <mxCell id="krKrzM0fU8PKZaGyO-Va-105" value="(Tank pressure needs to be stable)" style="text;html=1;strokeColor=none;fillColor=none;align=center;verticalAlign=middle;whiteSpace=wrap;rounded=0;" parent="1" vertex="1">
          <mxGeometry x="220" y="1470" width="85" height="30" as="geometry" />
        </mxCell>
        <mxCell id="krKrzM0fU8PKZaGyO-Va-107" value="Open V1" style="text;html=1;strokeColor=none;fillColor=none;align=center;verticalAlign=middle;whiteSpace=wrap;rounded=0;" parent="1" vertex="1">
          <mxGeometry x="337" y="1510" width="60" height="30" as="geometry" />
        </mxCell>
        <mxCell id="BcTsUivfGt-5EZSGSPdi-17" style="edgeStyle=orthogonalEdgeStyle;rounded=0;orthogonalLoop=1;jettySize=auto;html=1;exitX=1;exitY=0.5;exitDx=0;exitDy=0;entryX=0;entryY=0.5;entryDx=0;entryDy=0;" edge="1" parent="1" source="krKrzM0fU8PKZaGyO-Va-108" target="BcTsUivfGt-5EZSGSPdi-14">
          <mxGeometry relative="1" as="geometry" />
        </mxCell>
        <mxCell id="krKrzM0fU8PKZaGyO-Va-108" value="" style="ellipse;whiteSpace=wrap;html=1;aspect=fixed;" parent="1" vertex="1">
          <mxGeometry x="530" y="1420" width="80" height="80" as="geometry" />
        </mxCell>
        <mxCell id="BcTsUivfGt-5EZSGSPdi-2" style="edgeStyle=orthogonalEdgeStyle;rounded=0;orthogonalLoop=1;jettySize=auto;html=1;exitX=1;exitY=0.5;exitDx=0;exitDy=0;entryX=0;entryY=0.5;entryDx=0;entryDy=0;" edge="1" parent="1" source="krKrzM0fU8PKZaGyO-Va-110" target="BcTsUivfGt-5EZSGSPdi-1">
          <mxGeometry relative="1" as="geometry" />
        </mxCell>
        <mxCell id="krKrzM0fU8PKZaGyO-Va-110" value="" style="ellipse;whiteSpace=wrap;html=1;aspect=fixed;" parent="1" vertex="1">
          <mxGeometry x="530" y="1190" width="80" height="80" as="geometry" />
        </mxCell>
        <mxCell id="krKrzM0fU8PKZaGyO-Va-114" value="Close V2" style="text;html=1;strokeColor=none;fillColor=none;align=center;verticalAlign=middle;whiteSpace=wrap;rounded=0;" parent="1" vertex="1">
          <mxGeometry x="540" y="1280" width="60" height="30" as="geometry" />
        </mxCell>
        <mxCell id="krKrzM0fU8PKZaGyO-Va-115" value="P &amp;gt;= 50 bar" style="text;html=1;strokeColor=none;fillColor=none;align=center;verticalAlign=middle;whiteSpace=wrap;rounded=0;" parent="1" vertex="1">
          <mxGeometry x="440" y="1430" width="60" height="30" as="geometry" />
        </mxCell>
        <mxCell id="krKrzM0fU8PKZaGyO-Va-117" value="Close V1" style="text;html=1;strokeColor=none;fillColor=none;align=center;verticalAlign=middle;whiteSpace=wrap;rounded=0;" parent="1" vertex="1">
          <mxGeometry x="540" y="1510" width="60" height="30" as="geometry" />
        </mxCell>
        <mxCell id="krKrzM0fU8PKZaGyO-Va-118" value="Stage 3 Done" style="ellipse;whiteSpace=wrap;html=1;aspect=fixed;strokeColor=#FF0000;" parent="1" vertex="1">
          <mxGeometry x="870" y="1420" width="80" height="80" as="geometry" />
        </mxCell>
        <mxCell id="krKrzM0fU8PKZaGyO-Va-122" value="" style="endArrow=none;html=1;rounded=0;entryX=1;entryY=0.5;entryDx=0;entryDy=0;" parent="1" target="krKrzM0fU8PKZaGyO-Va-21" edge="1">
          <mxGeometry width="50" height="50" relative="1" as="geometry">
            <mxPoint x="520" y="370" as="sourcePoint" />
            <mxPoint x="410" y="210" as="targetPoint" />
            <Array as="points">
              <mxPoint x="410" y="370" />
            </Array>
          </mxGeometry>
        </mxCell>
        <mxCell id="krKrzM0fU8PKZaGyO-Va-123" value="" style="endArrow=none;html=1;rounded=0;exitX=0;exitY=0.5;exitDx=0;exitDy=0;" parent="1" source="krKrzM0fU8PKZaGyO-Va-21" edge="1">
          <mxGeometry width="50" height="50" relative="1" as="geometry">
            <mxPoint x="400" y="220" as="sourcePoint" />
            <mxPoint x="411" y="120" as="targetPoint" />
          </mxGeometry>
        </mxCell>
        <mxCell id="BcTsUivfGt-5EZSGSPdi-9" style="edgeStyle=orthogonalEdgeStyle;rounded=0;orthogonalLoop=1;jettySize=auto;html=1;exitX=1;exitY=0.5;exitDx=0;exitDy=0;entryX=0;entryY=0.5;entryDx=0;entryDy=0;" edge="1" parent="1" source="BcTsUivfGt-5EZSGSPdi-1" target="BcTsUivfGt-5EZSGSPdi-8">
          <mxGeometry relative="1" as="geometry" />
        </mxCell>
        <mxCell id="BcTsUivfGt-5EZSGSPdi-1" value="" style="ellipse;whiteSpace=wrap;html=1;aspect=fixed;" vertex="1" parent="1">
          <mxGeometry x="700" y="1190" width="80" height="80" as="geometry" />
        </mxCell>
        <mxCell id="BcTsUivfGt-5EZSGSPdi-5" value="Open V3" style="text;html=1;align=center;verticalAlign=middle;whiteSpace=wrap;rounded=0;" vertex="1" parent="1">
          <mxGeometry x="710" y="1280" width="60" height="30" as="geometry" />
        </mxCell>
        <mxCell id="BcTsUivfGt-5EZSGSPdi-6" value="Purge the fillig line of N2O" style="text;html=1;align=center;verticalAlign=middle;whiteSpace=wrap;rounded=0;" vertex="1" parent="1">
          <mxGeometry x="690" y="1139" width="100" height="30" as="geometry" />
        </mxCell>
        <mxCell id="BcTsUivfGt-5EZSGSPdi-12" style="edgeStyle=orthogonalEdgeStyle;rounded=0;orthogonalLoop=1;jettySize=auto;html=1;exitX=1;exitY=0.5;exitDx=0;exitDy=0;entryX=0;entryY=0.5;entryDx=0;entryDy=0;" edge="1" parent="1" source="BcTsUivfGt-5EZSGSPdi-8" target="krKrzM0fU8PKZaGyO-Va-98">
          <mxGeometry relative="1" as="geometry" />
        </mxCell>
        <mxCell id="BcTsUivfGt-5EZSGSPdi-8" value="" style="ellipse;whiteSpace=wrap;html=1;aspect=fixed;" vertex="1" parent="1">
          <mxGeometry x="890" y="1190" width="80" height="80" as="geometry" />
        </mxCell>
        <mxCell id="BcTsUivfGt-5EZSGSPdi-10" value="P &amp;lt;= 1bar" style="text;html=1;align=center;verticalAlign=middle;whiteSpace=wrap;rounded=0;" vertex="1" parent="1">
          <mxGeometry x="805" y="1200" width="60" height="30" as="geometry" />
        </mxCell>
        <mxCell id="BcTsUivfGt-5EZSGSPdi-11" value="Close V3" style="text;html=1;align=center;verticalAlign=middle;whiteSpace=wrap;rounded=0;" vertex="1" parent="1">
          <mxGeometry x="900" y="1280" width="60" height="30" as="geometry" />
        </mxCell>
        <mxCell id="BcTsUivfGt-5EZSGSPdi-18" style="edgeStyle=orthogonalEdgeStyle;rounded=0;orthogonalLoop=1;jettySize=auto;html=1;exitX=1;exitY=0.5;exitDx=0;exitDy=0;entryX=0;entryY=0.5;entryDx=0;entryDy=0;" edge="1" parent="1" source="BcTsUivfGt-5EZSGSPdi-14" target="krKrzM0fU8PKZaGyO-Va-118">
          <mxGeometry relative="1" as="geometry" />
        </mxCell>
        <mxCell id="BcTsUivfGt-5EZSGSPdi-14" value="" style="ellipse;whiteSpace=wrap;html=1;aspect=fixed;" vertex="1" parent="1">
          <mxGeometry x="720" y="1420" width="80" height="80" as="geometry" />
        </mxCell>
        <mxCell id="BcTsUivfGt-5EZSGSPdi-15" value="Open V3" style="text;html=1;align=center;verticalAlign=middle;whiteSpace=wrap;rounded=0;" vertex="1" parent="1">
          <mxGeometry x="730" y="1510" width="60" height="30" as="geometry" />
        </mxCell>
        <mxCell id="BcTsUivfGt-5EZSGSPdi-16" value="Purge the fillig line of He" style="text;html=1;align=center;verticalAlign=middle;whiteSpace=wrap;rounded=0;" vertex="1" parent="1">
          <mxGeometry x="710" y="1369" width="100" height="30" as="geometry" />
        </mxCell>
        <mxCell id="BcTsUivfGt-5EZSGSPdi-77" value="FLP is the filling line pressure" style="text;html=1;align=center;verticalAlign=middle;whiteSpace=wrap;rounded=0;" vertex="1" parent="1">
          <mxGeometry x="290" y="160" width="80" height="30" as="geometry" />
        </mxCell>
      </root>
    </mxGraphModel>
  </diagram>
  <diagram id="rjvyFWC6-KFaPND2KQgN" name="Fill procedure">
    <mxGraphModel dx="2009" dy="1656" grid="1" gridSize="10" guides="1" tooltips="1" connect="1" arrows="1" fold="1" page="1" pageScale="1" pageWidth="827" pageHeight="1169" math="0" shadow="0">
      <root>
        <mxCell id="0" />
        <mxCell id="1" parent="0" />
        <mxCell id="l-DtXy-otRGeA2QByU_i-1" value="Rocket programs" style="text;html=1;align=center;verticalAlign=middle;whiteSpace=wrap;rounded=0;fontSize=20;" vertex="1" parent="1">
          <mxGeometry x="1179" y="640" width="110" height="30" as="geometry" />
        </mxCell>
        <mxCell id="l-DtXy-otRGeA2QByU_i-2" style="edgeStyle=orthogonalEdgeStyle;rounded=0;orthogonalLoop=1;jettySize=auto;html=1;exitX=1;exitY=0.5;exitDx=0;exitDy=0;entryX=0;entryY=0.5;entryDx=0;entryDy=0;" edge="1" parent="1" source="l-DtXy-otRGeA2QByU_i-3" target="l-DtXy-otRGeA2QByU_i-6">
          <mxGeometry relative="1" as="geometry" />
        </mxCell>
        <mxCell id="l-DtXy-otRGeA2QByU_i-3" value="" style="ellipse;whiteSpace=wrap;html=1;aspect=fixed;" vertex="1" parent="1">
          <mxGeometry x="920" y="810" width="80" height="80" as="geometry" />
        </mxCell>
        <mxCell id="l-DtXy-otRGeA2QByU_i-4" value="Prog1, &lt;br&gt;pressure safety" style="text;html=1;align=center;verticalAlign=middle;whiteSpace=wrap;rounded=0;" vertex="1" parent="1">
          <mxGeometry x="910" y="740" width="100" height="30" as="geometry" />
        </mxCell>
        <mxCell id="l-DtXy-otRGeA2QByU_i-5" style="edgeStyle=orthogonalEdgeStyle;rounded=0;orthogonalLoop=1;jettySize=auto;html=1;exitX=0;exitY=1;exitDx=0;exitDy=0;entryX=0;entryY=0;entryDx=0;entryDy=0;" edge="1" parent="1" source="l-DtXy-otRGeA2QByU_i-6" target="l-DtXy-otRGeA2QByU_i-8">
          <mxGeometry relative="1" as="geometry" />
        </mxCell>
        <mxCell id="l-DtXy-otRGeA2QByU_i-6" value="" style="ellipse;whiteSpace=wrap;html=1;aspect=fixed;" vertex="1" parent="1">
          <mxGeometry x="1079" y="810" width="80" height="80" as="geometry" />
        </mxCell>
        <mxCell id="l-DtXy-otRGeA2QByU_i-7" style="edgeStyle=orthogonalEdgeStyle;rounded=0;orthogonalLoop=1;jettySize=auto;html=1;exitX=1;exitY=0;exitDx=0;exitDy=0;entryX=1;entryY=1;entryDx=0;entryDy=0;" edge="1" parent="1" source="l-DtXy-otRGeA2QByU_i-8" target="l-DtXy-otRGeA2QByU_i-6">
          <mxGeometry relative="1" as="geometry" />
        </mxCell>
        <mxCell id="l-DtXy-otRGeA2QByU_i-8" value="" style="ellipse;whiteSpace=wrap;html=1;aspect=fixed;" vertex="1" parent="1">
          <mxGeometry x="1079" y="970" width="80" height="80" as="geometry" />
        </mxCell>
        <mxCell id="l-DtXy-otRGeA2QByU_i-9" value="Close VPU" style="text;html=1;align=center;verticalAlign=middle;whiteSpace=wrap;rounded=0;" vertex="1" parent="1">
          <mxGeometry x="1089" y="780" width="60" height="30" as="geometry" />
        </mxCell>
        <mxCell id="l-DtXy-otRGeA2QByU_i-10" value="P &amp;gt; RP1" style="text;html=1;align=center;verticalAlign=middle;whiteSpace=wrap;rounded=0;" vertex="1" parent="1">
          <mxGeometry x="1029" y="915" width="60" height="30" as="geometry" />
        </mxCell>
        <mxCell id="l-DtXy-otRGeA2QByU_i-11" value="P &amp;lt; RP2" style="text;html=1;align=center;verticalAlign=middle;whiteSpace=wrap;rounded=0;" vertex="1" parent="1">
          <mxGeometry x="1159" y="915" width="60" height="30" as="geometry" />
        </mxCell>
        <mxCell id="l-DtXy-otRGeA2QByU_i-12" value="Prog2, &lt;br&gt;lower pressure" style="text;html=1;align=center;verticalAlign=middle;whiteSpace=wrap;rounded=0;" vertex="1" parent="1">
          <mxGeometry x="1309" y="740" width="100" height="30" as="geometry" />
        </mxCell>
        <mxCell id="l-DtXy-otRGeA2QByU_i-13" style="edgeStyle=orthogonalEdgeStyle;rounded=0;orthogonalLoop=1;jettySize=auto;html=1;exitX=1;exitY=0.5;exitDx=0;exitDy=0;entryX=0;entryY=0.5;entryDx=0;entryDy=0;" edge="1" parent="1" source="l-DtXy-otRGeA2QByU_i-14" target="l-DtXy-otRGeA2QByU_i-16">
          <mxGeometry relative="1" as="geometry" />
        </mxCell>
        <mxCell id="l-DtXy-otRGeA2QByU_i-14" value="" style="ellipse;whiteSpace=wrap;html=1;aspect=fixed;" vertex="1" parent="1">
          <mxGeometry x="1319" y="810" width="80" height="80" as="geometry" />
        </mxCell>
        <mxCell id="l-DtXy-otRGeA2QByU_i-15" style="edgeStyle=orthogonalEdgeStyle;rounded=0;orthogonalLoop=1;jettySize=auto;html=1;exitX=1;exitY=0.5;exitDx=0;exitDy=0;entryX=0;entryY=0.5;entryDx=0;entryDy=0;" edge="1" parent="1" source="l-DtXy-otRGeA2QByU_i-16" target="l-DtXy-otRGeA2QByU_i-17">
          <mxGeometry relative="1" as="geometry" />
        </mxCell>
        <mxCell id="l-DtXy-otRGeA2QByU_i-16" value="" style="ellipse;whiteSpace=wrap;html=1;aspect=fixed;" vertex="1" parent="1">
          <mxGeometry x="1479" y="810" width="80" height="80" as="geometry" />
        </mxCell>
        <mxCell id="l-DtXy-otRGeA2QByU_i-17" value="" style="ellipse;whiteSpace=wrap;html=1;aspect=fixed;" vertex="1" parent="1">
          <mxGeometry x="1639" y="810" width="80" height="80" as="geometry" />
        </mxCell>
        <mxCell id="l-DtXy-otRGeA2QByU_i-18" value="P &amp;lt; RP3" style="text;html=1;align=center;verticalAlign=middle;whiteSpace=wrap;rounded=0;" vertex="1" parent="1">
          <mxGeometry x="1569" y="860" width="60" height="30" as="geometry" />
        </mxCell>
        <mxCell id="l-DtXy-otRGeA2QByU_i-19" value="" style="ellipse;whiteSpace=wrap;html=1;aspect=fixed;" vertex="1" parent="1">
          <mxGeometry x="1649" y="820" width="60" height="60" as="geometry" />
        </mxCell>
        <mxCell id="l-DtXy-otRGeA2QByU_i-20" value="Open VPU" style="text;html=1;align=center;verticalAlign=middle;whiteSpace=wrap;rounded=0;" vertex="1" parent="1">
          <mxGeometry x="1489" y="780" width="60" height="30" as="geometry" />
        </mxCell>
        <mxCell id="l-DtXy-otRGeA2QByU_i-21" value="Open VPU" style="text;html=1;align=center;verticalAlign=middle;whiteSpace=wrap;rounded=0;" vertex="1" parent="1">
          <mxGeometry x="1089" y="1050" width="60" height="30" as="geometry" />
        </mxCell>
        <mxCell id="l-DtXy-otRGeA2QByU_i-22" value="Close VPU" style="text;html=1;align=center;verticalAlign=middle;whiteSpace=wrap;rounded=0;" vertex="1" parent="1">
          <mxGeometry x="1644" y="780" width="70" height="30" as="geometry" />
        </mxCell>
        <mxCell id="l-DtXy-otRGeA2QByU_i-23" value="&lt;font color=&quot;#ff0000&quot;&gt;Finish&lt;/font&gt;" style="text;html=1;align=center;verticalAlign=middle;whiteSpace=wrap;rounded=0;" vertex="1" parent="1">
          <mxGeometry x="1649" y="835" width="60" height="30" as="geometry" />
        </mxCell>
        <mxCell id="l-DtXy-otRGeA2QByU_i-24" value="Fill Station programs" style="text;html=1;align=center;verticalAlign=middle;whiteSpace=wrap;rounded=0;fontSize=20;" vertex="1" parent="1">
          <mxGeometry x="1190" y="95" width="110" height="30" as="geometry" />
        </mxCell>
        <mxCell id="l-DtXy-otRGeA2QByU_i-25" value="Prog 1&lt;br&gt;fill He" style="text;html=1;align=center;verticalAlign=middle;whiteSpace=wrap;rounded=0;" vertex="1" parent="1">
          <mxGeometry x="921" y="205" width="60" height="30" as="geometry" />
        </mxCell>
        <mxCell id="l-DtXy-otRGeA2QByU_i-26" style="edgeStyle=orthogonalEdgeStyle;rounded=0;orthogonalLoop=1;jettySize=auto;html=1;exitX=1;exitY=0.5;exitDx=0;exitDy=0;entryX=0;entryY=0.5;entryDx=0;entryDy=0;" edge="1" parent="1" source="l-DtXy-otRGeA2QByU_i-27" target="l-DtXy-otRGeA2QByU_i-29">
          <mxGeometry relative="1" as="geometry" />
        </mxCell>
        <mxCell id="l-DtXy-otRGeA2QByU_i-27" value="" style="ellipse;whiteSpace=wrap;html=1;aspect=fixed;" vertex="1" parent="1">
          <mxGeometry x="911" y="265" width="80" height="80" as="geometry" />
        </mxCell>
        <mxCell id="l-DtXy-otRGeA2QByU_i-28" style="edgeStyle=orthogonalEdgeStyle;rounded=0;orthogonalLoop=1;jettySize=auto;html=1;exitX=1;exitY=0.5;exitDx=0;exitDy=0;entryX=0;entryY=0.5;entryDx=0;entryDy=0;" edge="1" parent="1" source="l-DtXy-otRGeA2QByU_i-29" target="l-DtXy-otRGeA2QByU_i-31">
          <mxGeometry relative="1" as="geometry" />
        </mxCell>
        <mxCell id="l-DtXy-otRGeA2QByU_i-29" value="" style="ellipse;whiteSpace=wrap;html=1;aspect=fixed;" vertex="1" parent="1">
          <mxGeometry x="1080" y="265" width="80" height="80" as="geometry" />
        </mxCell>
        <mxCell id="l-DtXy-otRGeA2QByU_i-30" value="Open V1" style="text;html=1;align=center;verticalAlign=middle;whiteSpace=wrap;rounded=0;" vertex="1" parent="1">
          <mxGeometry x="1090" y="235" width="60" height="30" as="geometry" />
        </mxCell>
        <mxCell id="l-DtXy-otRGeA2QByU_i-31" value="" style="ellipse;whiteSpace=wrap;html=1;aspect=fixed;" vertex="1" parent="1">
          <mxGeometry x="1251" y="265" width="80" height="80" as="geometry" />
        </mxCell>
        <mxCell id="l-DtXy-otRGeA2QByU_i-32" value="P &amp;gt; FP1" style="text;html=1;align=center;verticalAlign=middle;whiteSpace=wrap;rounded=0;" vertex="1" parent="1">
          <mxGeometry x="1170" y="275" width="60" height="30" as="geometry" />
        </mxCell>
        <mxCell id="l-DtXy-otRGeA2QByU_i-33" value="Close V1" style="text;html=1;align=center;verticalAlign=middle;whiteSpace=wrap;rounded=0;" vertex="1" parent="1">
          <mxGeometry x="1261" y="235" width="60" height="30" as="geometry" />
        </mxCell>
        <mxCell id="l-DtXy-otRGeA2QByU_i-34" value="Prog 2&lt;br&gt;fill N2O" style="text;html=1;align=center;verticalAlign=middle;whiteSpace=wrap;rounded=0;" vertex="1" parent="1">
          <mxGeometry x="1521" y="205" width="60" height="30" as="geometry" />
        </mxCell>
        <mxCell id="l-DtXy-otRGeA2QByU_i-35" style="edgeStyle=orthogonalEdgeStyle;rounded=0;orthogonalLoop=1;jettySize=auto;html=1;exitX=1;exitY=0.5;exitDx=0;exitDy=0;entryX=0;entryY=0.5;entryDx=0;entryDy=0;" edge="1" parent="1" source="l-DtXy-otRGeA2QByU_i-36" target="l-DtXy-otRGeA2QByU_i-39">
          <mxGeometry relative="1" as="geometry" />
        </mxCell>
        <mxCell id="l-DtXy-otRGeA2QByU_i-36" value="" style="ellipse;whiteSpace=wrap;html=1;aspect=fixed;" vertex="1" parent="1">
          <mxGeometry x="1511" y="265" width="80" height="80" as="geometry" />
        </mxCell>
        <mxCell id="l-DtXy-otRGeA2QByU_i-37" style="edgeStyle=orthogonalEdgeStyle;rounded=0;orthogonalLoop=1;jettySize=auto;html=1;exitX=1;exitY=0.5;exitDx=0;exitDy=0;entryX=0;entryY=0.5;entryDx=0;entryDy=0;" edge="1" parent="1" source="l-DtXy-otRGeA2QByU_i-39" target="l-DtXy-otRGeA2QByU_i-41">
          <mxGeometry relative="1" as="geometry" />
        </mxCell>
        <mxCell id="l-DtXy-otRGeA2QByU_i-38" style="edgeStyle=orthogonalEdgeStyle;rounded=0;orthogonalLoop=1;jettySize=auto;html=1;exitX=0;exitY=1;exitDx=0;exitDy=0;entryX=0;entryY=0;entryDx=0;entryDy=0;" edge="1" parent="1" source="l-DtXy-otRGeA2QByU_i-39" target="l-DtXy-otRGeA2QByU_i-45">
          <mxGeometry relative="1" as="geometry" />
        </mxCell>
        <mxCell id="l-DtXy-otRGeA2QByU_i-39" value="" style="ellipse;whiteSpace=wrap;html=1;aspect=fixed;" vertex="1" parent="1">
          <mxGeometry x="1680" y="265" width="80" height="80" as="geometry" />
        </mxCell>
        <mxCell id="l-DtXy-otRGeA2QByU_i-40" value="Open V2" style="text;html=1;align=center;verticalAlign=middle;whiteSpace=wrap;rounded=0;" vertex="1" parent="1">
          <mxGeometry x="1690" y="235" width="60" height="30" as="geometry" />
        </mxCell>
        <mxCell id="l-DtXy-otRGeA2QByU_i-41" value="" style="ellipse;whiteSpace=wrap;html=1;aspect=fixed;" vertex="1" parent="1">
          <mxGeometry x="1851" y="265" width="80" height="80" as="geometry" />
        </mxCell>
        <mxCell id="l-DtXy-otRGeA2QByU_i-42" value="L &amp;gt; FL2" style="text;html=1;align=center;verticalAlign=middle;whiteSpace=wrap;rounded=0;" vertex="1" parent="1">
          <mxGeometry x="1770" y="275" width="60" height="30" as="geometry" />
        </mxCell>
        <mxCell id="l-DtXy-otRGeA2QByU_i-43" value="Close V2" style="text;html=1;align=center;verticalAlign=middle;whiteSpace=wrap;rounded=0;" vertex="1" parent="1">
          <mxGeometry x="1861" y="235" width="60" height="30" as="geometry" />
        </mxCell>
        <mxCell id="l-DtXy-otRGeA2QByU_i-44" style="edgeStyle=orthogonalEdgeStyle;rounded=0;orthogonalLoop=1;jettySize=auto;html=1;exitX=1;exitY=0;exitDx=0;exitDy=0;entryX=1;entryY=1;entryDx=0;entryDy=0;" edge="1" parent="1" source="l-DtXy-otRGeA2QByU_i-45" target="l-DtXy-otRGeA2QByU_i-39">
          <mxGeometry relative="1" as="geometry" />
        </mxCell>
        <mxCell id="l-DtXy-otRGeA2QByU_i-45" value="" style="ellipse;whiteSpace=wrap;html=1;aspect=fixed;" vertex="1" parent="1">
          <mxGeometry x="1680" y="420" width="80" height="80" as="geometry" />
        </mxCell>
        <mxCell id="l-DtXy-otRGeA2QByU_i-46" value="P &amp;gt; FP2&lt;br&gt;and&lt;br&gt;L &amp;lt; FL1" style="text;html=1;align=center;verticalAlign=middle;whiteSpace=wrap;rounded=0;" vertex="1" parent="1">
          <mxGeometry x="1620" y="365" width="60" height="30" as="geometry" />
        </mxCell>
        <mxCell id="l-DtXy-otRGeA2QByU_i-47" value="&lt;font color=&quot;#0000ff&quot;&gt;Resume cmd&lt;/font&gt;" style="text;html=1;align=center;verticalAlign=middle;whiteSpace=wrap;rounded=0;" vertex="1" parent="1">
          <mxGeometry x="1750" y="365" width="60" height="30" as="geometry" />
        </mxCell>
        <mxCell id="l-DtXy-otRGeA2QByU_i-48" value="Close V2" style="text;html=1;align=center;verticalAlign=middle;whiteSpace=wrap;rounded=0;" vertex="1" parent="1">
          <mxGeometry x="1690" y="500" width="60" height="30" as="geometry" />
        </mxCell>
        <mxCell id="l-DtXy-otRGeA2QByU_i-49" value="Prog 3&lt;br&gt;Purge line" style="text;html=1;align=center;verticalAlign=middle;whiteSpace=wrap;rounded=0;" vertex="1" parent="1">
          <mxGeometry x="920" y="405" width="60" height="30" as="geometry" />
        </mxCell>
        <mxCell id="l-DtXy-otRGeA2QByU_i-50" style="edgeStyle=orthogonalEdgeStyle;rounded=0;orthogonalLoop=1;jettySize=auto;html=1;exitX=1;exitY=0.5;exitDx=0;exitDy=0;entryX=0;entryY=0.5;entryDx=0;entryDy=0;" edge="1" parent="1" source="l-DtXy-otRGeA2QByU_i-51" target="l-DtXy-otRGeA2QByU_i-53">
          <mxGeometry relative="1" as="geometry" />
        </mxCell>
        <mxCell id="l-DtXy-otRGeA2QByU_i-51" value="" style="ellipse;whiteSpace=wrap;html=1;aspect=fixed;" vertex="1" parent="1">
          <mxGeometry x="910" y="465" width="80" height="80" as="geometry" />
        </mxCell>
        <mxCell id="l-DtXy-otRGeA2QByU_i-52" style="edgeStyle=orthogonalEdgeStyle;rounded=0;orthogonalLoop=1;jettySize=auto;html=1;exitX=1;exitY=0.5;exitDx=0;exitDy=0;entryX=0;entryY=0.5;entryDx=0;entryDy=0;" edge="1" parent="1" source="l-DtXy-otRGeA2QByU_i-53" target="l-DtXy-otRGeA2QByU_i-55">
          <mxGeometry relative="1" as="geometry" />
        </mxCell>
        <mxCell id="l-DtXy-otRGeA2QByU_i-53" value="" style="ellipse;whiteSpace=wrap;html=1;aspect=fixed;" vertex="1" parent="1">
          <mxGeometry x="1079" y="465" width="80" height="80" as="geometry" />
        </mxCell>
        <mxCell id="l-DtXy-otRGeA2QByU_i-54" value="Open V3" style="text;html=1;align=center;verticalAlign=middle;whiteSpace=wrap;rounded=0;" vertex="1" parent="1">
          <mxGeometry x="1089" y="435" width="60" height="30" as="geometry" />
        </mxCell>
        <mxCell id="l-DtXy-otRGeA2QByU_i-55" value="" style="ellipse;whiteSpace=wrap;html=1;aspect=fixed;" vertex="1" parent="1">
          <mxGeometry x="1250" y="465" width="80" height="80" as="geometry" />
        </mxCell>
        <mxCell id="l-DtXy-otRGeA2QByU_i-56" value="FLP &amp;lt; FP3 (1 bar)" style="text;html=1;align=center;verticalAlign=middle;whiteSpace=wrap;rounded=0;" vertex="1" parent="1">
          <mxGeometry x="1164" y="470" width="72" height="30" as="geometry" />
        </mxCell>
        <mxCell id="l-DtXy-otRGeA2QByU_i-57" value="Close V3" style="text;html=1;align=center;verticalAlign=middle;whiteSpace=wrap;rounded=0;" vertex="1" parent="1">
          <mxGeometry x="1260" y="435" width="60" height="30" as="geometry" />
        </mxCell>
        <mxCell id="l-DtXy-otRGeA2QByU_i-58" value="" style="ellipse;whiteSpace=wrap;html=1;aspect=fixed;" vertex="1" parent="1">
          <mxGeometry x="1861" y="275" width="60" height="60" as="geometry" />
        </mxCell>
        <mxCell id="l-DtXy-otRGeA2QByU_i-59" value="&lt;font color=&quot;#ff0000&quot;&gt;Finish&lt;/font&gt;" style="text;html=1;align=center;verticalAlign=middle;whiteSpace=wrap;rounded=0;" vertex="1" parent="1">
          <mxGeometry x="1861" y="290" width="60" height="30" as="geometry" />
        </mxCell>
        <mxCell id="l-DtXy-otRGeA2QByU_i-60" value="" style="ellipse;whiteSpace=wrap;html=1;aspect=fixed;" vertex="1" parent="1">
          <mxGeometry x="1261" y="275" width="60" height="60" as="geometry" />
        </mxCell>
        <mxCell id="l-DtXy-otRGeA2QByU_i-61" value="&lt;font color=&quot;#ff0000&quot;&gt;Finish&lt;/font&gt;" style="text;html=1;align=center;verticalAlign=middle;whiteSpace=wrap;rounded=0;" vertex="1" parent="1">
          <mxGeometry x="1261" y="290" width="60" height="30" as="geometry" />
        </mxCell>
        <mxCell id="l-DtXy-otRGeA2QByU_i-62" value="" style="ellipse;whiteSpace=wrap;html=1;aspect=fixed;" vertex="1" parent="1">
          <mxGeometry x="1260" y="475" width="60" height="60" as="geometry" />
        </mxCell>
        <mxCell id="l-DtXy-otRGeA2QByU_i-63" value="&lt;font color=&quot;#ff0000&quot;&gt;Finish&lt;/font&gt;" style="text;html=1;align=center;verticalAlign=middle;whiteSpace=wrap;rounded=0;" vertex="1" parent="1">
          <mxGeometry x="1260" y="490" width="60" height="30" as="geometry" />
        </mxCell>
        <mxCell id="l-DtXy-otRGeA2QByU_i-64" value="" style="ellipse;whiteSpace=wrap;html=1;aspect=fixed;" vertex="1" parent="1">
          <mxGeometry x="1690" y="430" width="60" height="60" as="geometry" />
        </mxCell>
        <mxCell id="l-DtXy-otRGeA2QByU_i-65" value="&lt;font color=&quot;#ff0000&quot;&gt;Stop&lt;/font&gt;" style="text;html=1;align=center;verticalAlign=middle;whiteSpace=wrap;rounded=0;" vertex="1" parent="1">
          <mxGeometry x="1690" y="445" width="60" height="30" as="geometry" />
        </mxCell>
        <mxCell id="l-DtXy-otRGeA2QByU_i-66" value="&lt;font style=&quot;font-size: 20px;&quot;&gt;Stage 1:&lt;br&gt;&lt;br&gt;step 1:&lt;br&gt;set RP1 to 10bar&lt;br&gt;set RP2 to 7 bar&lt;br&gt;send rocket to prog1&lt;br&gt;&lt;br&gt;step 2:&lt;br&gt;set FP1 to 6 bar&lt;br&gt;send fill to prog 1&lt;br&gt;&lt;br&gt;step 3:&lt;br&gt;wait for fill to finish&lt;br&gt;&lt;br&gt;step 4:&lt;br&gt;set RP3 to 5 bar&lt;br&gt;send rocket to prog 2&lt;br&gt;&lt;br&gt;step 5:&lt;br&gt;wait for rocket to finish&lt;br&gt;&lt;/font&gt;" style="text;align=left;verticalAlign=top;whiteSpace=wrap;rounded=0;html=1;horizontal=1;" vertex="1" parent="1">
          <mxGeometry x="940" y="1170" width="220" height="500" as="geometry" />
        </mxCell>
        <mxCell id="l-DtXy-otRGeA2QByU_i-67" value="&lt;font style=&quot;font-size: 20px;&quot;&gt;Stage 2:&lt;br&gt;&lt;br&gt;step 1:&lt;br&gt;set RP1 to 45 bar&lt;br&gt;set RP2 to 40 bar&lt;br&gt;send rocket to prog1&lt;br&gt;&lt;br&gt;step 2:&lt;br&gt;set FL1 to 10L&lt;br&gt;set FL2 to 11L&lt;br&gt;set FP2 to 40 bar&lt;br&gt;send fill to prog2&lt;br&gt;&lt;br&gt;If fill stops:&lt;br&gt;set RP3 to 35 bar&lt;br&gt;send rocket to prog2&lt;br&gt;wait for rocket to finish&lt;br&gt;send rocket to prog1 with values from step1&lt;br&gt;send &lt;font color=&quot;#0000ff&quot;&gt;resume&lt;/font&gt; to fill&lt;br&gt;&lt;br&gt;step 3:&lt;br&gt;wait for fill to finish&lt;br&gt;&lt;br&gt;step 4:&lt;br&gt;set FP3 to 1 bar&lt;br&gt;send fill to prog 3&lt;br&gt;&lt;br&gt;step 5:&lt;br&gt;wait for fill to finish&lt;br&gt;&lt;/font&gt;" style="text;align=left;verticalAlign=top;whiteSpace=wrap;rounded=0;html=1;horizontal=1;" vertex="1" parent="1">
          <mxGeometry x="1260" y="1170" width="400" height="690" as="geometry" />
        </mxCell>
        <mxCell id="l-DtXy-otRGeA2QByU_i-68" value="&lt;font style=&quot;font-size: 20px;&quot;&gt;Stage 3:&lt;br&gt;&lt;br&gt;step 1:&lt;br&gt;send rocket to idle from prog 1&lt;br&gt;&lt;br&gt;step 2:&lt;br&gt;set RP1 to 55 bar&lt;br&gt;set RP2 to 50 bar&lt;br&gt;send rocket to prog 1&lt;br&gt;&lt;br&gt;step 3:&lt;br&gt;set FP1 to 50 bar&lt;br&gt;send fill to prog 1&lt;br&gt;&lt;br&gt;step 4:&lt;br&gt;wait for fill to finish&lt;br&gt;&lt;br&gt;Optional:&lt;br&gt;if pressure is greater than the one wanted we can use rocket prog2 to reach the desired pressure&lt;br&gt;&lt;br&gt;step 5:&lt;br&gt;set FP3 to 1 bar&lt;br&gt;send fill to porg 3&lt;br&gt;&lt;br&gt;step 6:&lt;br&gt;wait for fill to finish&lt;br&gt;&lt;/font&gt;" style="text;align=left;verticalAlign=top;whiteSpace=wrap;rounded=0;html=1;horizontal=1;" vertex="1" parent="1">
          <mxGeometry x="1714" y="1160" width="220" height="770" as="geometry" />
        </mxCell>
      </root>
    </mxGraphModel>
  </diagram>
  <diagram id="MSdeaHuswJbYLtKITfFX" name="State Machine">
    <mxGraphModel dx="841" dy="974" grid="1" gridSize="10" guides="1" tooltips="1" connect="1" arrows="1" fold="1" page="1" pageScale="1" pageWidth="827" pageHeight="1169" math="0" shadow="0">
      <root>
        <mxCell id="0" />
        <mxCell id="1" parent="0" />
        <mxCell id="WYElJGBRScUd5PnhqdFE-1" value="Rocket programs" style="text;html=1;align=center;verticalAlign=middle;whiteSpace=wrap;rounded=0;fontSize=20;" vertex="1" parent="1">
          <mxGeometry x="1179" y="110" width="110" height="30" as="geometry" />
        </mxCell>
        <mxCell id="WYElJGBRScUd5PnhqdFE-5" style="edgeStyle=orthogonalEdgeStyle;rounded=0;orthogonalLoop=1;jettySize=auto;html=1;exitX=0;exitY=1;exitDx=0;exitDy=0;entryX=0;entryY=0;entryDx=0;entryDy=0;" edge="1" parent="1" source="WYElJGBRScUd5PnhqdFE-6" target="WYElJGBRScUd5PnhqdFE-8">
          <mxGeometry relative="1" as="geometry" />
        </mxCell>
        <mxCell id="35H73iDrwtsZgHUkn6E4-10" style="edgeStyle=orthogonalEdgeStyle;rounded=0;orthogonalLoop=1;jettySize=auto;html=1;exitX=1;exitY=0.5;exitDx=0;exitDy=0;entryX=0.5;entryY=1;entryDx=0;entryDy=0;fillColor=#f8cecc;strokeColor=#b85450;" edge="1" parent="1" source="WYElJGBRScUd5PnhqdFE-6" target="35H73iDrwtsZgHUkn6E4-2">
          <mxGeometry relative="1" as="geometry" />
        </mxCell>
        <mxCell id="WYElJGBRScUd5PnhqdFE-6" value="" style="ellipse;whiteSpace=wrap;html=1;aspect=fixed;" vertex="1" parent="1">
          <mxGeometry x="1085" y="380" width="80" height="80" as="geometry" />
        </mxCell>
        <mxCell id="WYElJGBRScUd5PnhqdFE-7" style="edgeStyle=orthogonalEdgeStyle;rounded=0;orthogonalLoop=1;jettySize=auto;html=1;exitX=1;exitY=0;exitDx=0;exitDy=0;entryX=1;entryY=1;entryDx=0;entryDy=0;" edge="1" parent="1" source="WYElJGBRScUd5PnhqdFE-8" target="WYElJGBRScUd5PnhqdFE-6">
          <mxGeometry relative="1" as="geometry" />
        </mxCell>
        <mxCell id="35H73iDrwtsZgHUkn6E4-11" style="edgeStyle=orthogonalEdgeStyle;rounded=0;orthogonalLoop=1;jettySize=auto;html=1;exitX=1;exitY=0.5;exitDx=0;exitDy=0;entryX=0.5;entryY=1;entryDx=0;entryDy=0;fillColor=#f8cecc;strokeColor=#b85450;" edge="1" parent="1" source="WYElJGBRScUd5PnhqdFE-8" target="35H73iDrwtsZgHUkn6E4-2">
          <mxGeometry relative="1" as="geometry">
            <mxPoint x="1306" y="350" as="targetPoint" />
          </mxGeometry>
        </mxCell>
        <mxCell id="WYElJGBRScUd5PnhqdFE-8" value="" style="ellipse;whiteSpace=wrap;html=1;aspect=fixed;" vertex="1" parent="1">
          <mxGeometry x="1085" y="510" width="80" height="80" as="geometry" />
        </mxCell>
        <mxCell id="WYElJGBRScUd5PnhqdFE-9" value="Close VPU" style="text;html=1;align=center;verticalAlign=middle;whiteSpace=wrap;rounded=0;" vertex="1" parent="1">
          <mxGeometry x="1095" y="405" width="60" height="30" as="geometry" />
        </mxCell>
        <mxCell id="WYElJGBRScUd5PnhqdFE-10" value="P &amp;gt; RP1" style="text;html=1;align=center;verticalAlign=middle;whiteSpace=wrap;rounded=0;" vertex="1" parent="1">
          <mxGeometry x="1035" y="470" width="60" height="30" as="geometry" />
        </mxCell>
        <mxCell id="WYElJGBRScUd5PnhqdFE-11" value="P &amp;lt; RP2" style="text;html=1;align=center;verticalAlign=middle;whiteSpace=wrap;rounded=0;" vertex="1" parent="1">
          <mxGeometry x="1155" y="490" width="60" height="30" as="geometry" />
        </mxCell>
        <mxCell id="35H73iDrwtsZgHUkn6E4-16" style="edgeStyle=orthogonalEdgeStyle;rounded=0;orthogonalLoop=1;jettySize=auto;html=1;exitX=0;exitY=0.5;exitDx=0;exitDy=0;entryX=0.5;entryY=1;entryDx=0;entryDy=0;fillColor=#f8cecc;strokeColor=#b85450;" edge="1" parent="1" source="WYElJGBRScUd5PnhqdFE-16" target="35H73iDrwtsZgHUkn6E4-2">
          <mxGeometry relative="1" as="geometry" />
        </mxCell>
        <mxCell id="35H73iDrwtsZgHUkn6E4-51" style="edgeStyle=orthogonalEdgeStyle;rounded=0;orthogonalLoop=1;jettySize=auto;html=1;exitX=1;exitY=0.5;exitDx=0;exitDy=0;entryX=1;entryY=0.5;entryDx=0;entryDy=0;" edge="1" parent="1" source="WYElJGBRScUd5PnhqdFE-16" target="35H73iDrwtsZgHUkn6E4-2">
          <mxGeometry relative="1" as="geometry" />
        </mxCell>
        <mxCell id="WYElJGBRScUd5PnhqdFE-16" value="" style="ellipse;whiteSpace=wrap;html=1;aspect=fixed;" vertex="1" parent="1">
          <mxGeometry x="1306" y="380" width="80" height="80" as="geometry" />
        </mxCell>
        <mxCell id="WYElJGBRScUd5PnhqdFE-18" value="P &amp;lt; RP3" style="text;html=1;align=center;verticalAlign=middle;whiteSpace=wrap;rounded=0;" vertex="1" parent="1">
          <mxGeometry x="1386" y="420" width="60" height="30" as="geometry" />
        </mxCell>
        <mxCell id="WYElJGBRScUd5PnhqdFE-20" value="Open VPU" style="text;html=1;align=center;verticalAlign=middle;whiteSpace=wrap;rounded=0;" vertex="1" parent="1">
          <mxGeometry x="1316" y="405" width="60" height="30" as="geometry" />
        </mxCell>
        <mxCell id="WYElJGBRScUd5PnhqdFE-21" value="Open VPU" style="text;html=1;align=center;verticalAlign=middle;whiteSpace=wrap;rounded=0;" vertex="1" parent="1">
          <mxGeometry x="1095" y="535" width="60" height="30" as="geometry" />
        </mxCell>
        <mxCell id="WYElJGBRScUd5PnhqdFE-24" value="Fill Station programs" style="text;html=1;align=center;verticalAlign=middle;whiteSpace=wrap;rounded=0;fontSize=20;" vertex="1" parent="1">
          <mxGeometry x="1830" y="100" width="110" height="30" as="geometry" />
        </mxCell>
        <mxCell id="35H73iDrwtsZgHUkn6E4-3" style="edgeStyle=orthogonalEdgeStyle;rounded=0;orthogonalLoop=1;jettySize=auto;html=1;exitX=1;exitY=0.5;exitDx=0;exitDy=0;entryX=0;entryY=0.5;entryDx=0;entryDy=0;" edge="1" parent="1" source="35H73iDrwtsZgHUkn6E4-1" target="35H73iDrwtsZgHUkn6E4-2">
          <mxGeometry relative="1" as="geometry" />
        </mxCell>
        <mxCell id="35H73iDrwtsZgHUkn6E4-1" value="Idle" style="ellipse;whiteSpace=wrap;html=1;aspect=fixed;" vertex="1" parent="1">
          <mxGeometry x="1006" y="215" width="80" height="80" as="geometry" />
        </mxCell>
        <mxCell id="35H73iDrwtsZgHUkn6E4-2" value="fuelling start" style="ellipse;whiteSpace=wrap;html=1;aspect=fixed;" vertex="1" parent="1">
          <mxGeometry x="1200" y="215" width="80" height="80" as="geometry" />
        </mxCell>
        <mxCell id="35H73iDrwtsZgHUkn6E4-4" value="&lt;font color=&quot;#0000ff&quot;&gt;Fuelling cmd&lt;/font&gt;" style="text;html=1;align=center;verticalAlign=middle;whiteSpace=wrap;rounded=0;" vertex="1" parent="1">
          <mxGeometry x="1115" y="215" width="60" height="30" as="geometry" />
        </mxCell>
        <mxCell id="35H73iDrwtsZgHUkn6E4-8" value="" style="endArrow=classic;html=1;rounded=0;exitX=0;exitY=1;exitDx=0;exitDy=0;entryX=0.5;entryY=0;entryDx=0;entryDy=0;" edge="1" parent="1" source="35H73iDrwtsZgHUkn6E4-2" target="WYElJGBRScUd5PnhqdFE-6">
          <mxGeometry width="50" height="50" relative="1" as="geometry">
            <mxPoint x="1236" y="390" as="sourcePoint" />
            <mxPoint x="1286" y="340" as="targetPoint" />
          </mxGeometry>
        </mxCell>
        <mxCell id="35H73iDrwtsZgHUkn6E4-9" value="&lt;font color=&quot;#0000ff&quot;&gt;Exec Prog1&lt;/font&gt;" style="text;html=1;align=center;verticalAlign=middle;whiteSpace=wrap;rounded=0;" vertex="1" parent="1">
          <mxGeometry x="1105" y="320" width="60" height="30" as="geometry" />
        </mxCell>
        <mxCell id="35H73iDrwtsZgHUkn6E4-12" value="Close VPU" style="text;html=1;align=center;verticalAlign=middle;whiteSpace=wrap;rounded=0;" vertex="1" parent="1">
          <mxGeometry x="1255" y="190" width="60" height="30" as="geometry" />
        </mxCell>
        <mxCell id="35H73iDrwtsZgHUkn6E4-13" value="&lt;font color=&quot;#0000ff&quot;&gt;Stop cmd&lt;/font&gt;" style="text;html=1;align=center;verticalAlign=middle;whiteSpace=wrap;rounded=0;" vertex="1" parent="1">
          <mxGeometry x="1175" y="390" width="60" height="30" as="geometry" />
        </mxCell>
        <mxCell id="35H73iDrwtsZgHUkn6E4-14" value="&lt;font color=&quot;#0000ff&quot;&gt;Stop cmd&lt;/font&gt;" style="text;html=1;align=center;verticalAlign=middle;whiteSpace=wrap;rounded=0;" vertex="1" parent="1">
          <mxGeometry x="1175" y="550" width="60" height="30" as="geometry" />
        </mxCell>
        <mxCell id="35H73iDrwtsZgHUkn6E4-15" value="" style="endArrow=classic;html=1;rounded=0;exitX=1;exitY=1;exitDx=0;exitDy=0;entryX=0.5;entryY=0;entryDx=0;entryDy=0;" edge="1" parent="1" source="35H73iDrwtsZgHUkn6E4-2" target="WYElJGBRScUd5PnhqdFE-16">
          <mxGeometry width="50" height="50" relative="1" as="geometry">
            <mxPoint x="1222" y="293" as="sourcePoint" />
            <mxPoint x="1135" y="410" as="targetPoint" />
          </mxGeometry>
        </mxCell>
        <mxCell id="35H73iDrwtsZgHUkn6E4-17" value="&lt;font color=&quot;#0000ff&quot;&gt;Stop cmd&lt;/font&gt;" style="text;html=1;align=center;verticalAlign=middle;whiteSpace=wrap;rounded=0;" vertex="1" parent="1">
          <mxGeometry x="1246" y="390" width="60" height="30" as="geometry" />
        </mxCell>
        <mxCell id="35H73iDrwtsZgHUkn6E4-25" style="edgeStyle=orthogonalEdgeStyle;rounded=0;orthogonalLoop=1;jettySize=auto;html=1;exitX=1;exitY=0.5;exitDx=0;exitDy=0;entryX=0;entryY=0.5;entryDx=0;entryDy=0;" edge="1" parent="1" source="35H73iDrwtsZgHUkn6E4-23" target="35H73iDrwtsZgHUkn6E4-24">
          <mxGeometry relative="1" as="geometry" />
        </mxCell>
        <mxCell id="35H73iDrwtsZgHUkn6E4-23" value="Idle" style="ellipse;whiteSpace=wrap;html=1;aspect=fixed;" vertex="1" parent="1">
          <mxGeometry x="1750" y="215" width="80" height="80" as="geometry" />
        </mxCell>
        <mxCell id="35H73iDrwtsZgHUkn6E4-43" style="edgeStyle=orthogonalEdgeStyle;rounded=0;orthogonalLoop=1;jettySize=auto;html=1;exitX=0.5;exitY=1;exitDx=0;exitDy=0;entryX=0.5;entryY=0;entryDx=0;entryDy=0;" edge="1" parent="1" source="35H73iDrwtsZgHUkn6E4-24" target="35H73iDrwtsZgHUkn6E4-41">
          <mxGeometry relative="1" as="geometry" />
        </mxCell>
        <mxCell id="35H73iDrwtsZgHUkn6E4-24" value="fueling start" style="ellipse;whiteSpace=wrap;html=1;aspect=fixed;" vertex="1" parent="1">
          <mxGeometry x="1956" y="215" width="80" height="80" as="geometry" />
        </mxCell>
        <mxCell id="35H73iDrwtsZgHUkn6E4-26" value="&lt;font color=&quot;#0000ff&quot;&gt;Fuelling cmd&lt;/font&gt;" style="text;html=1;align=center;verticalAlign=middle;whiteSpace=wrap;rounded=0;" vertex="1" parent="1">
          <mxGeometry x="1865" y="215" width="60" height="30" as="geometry" />
        </mxCell>
        <mxCell id="35H73iDrwtsZgHUkn6E4-27" value="&lt;font color=&quot;#0000ff&quot;&gt;Exec Prog2&lt;/font&gt;" style="text;html=1;align=center;verticalAlign=middle;whiteSpace=wrap;rounded=0;" vertex="1" parent="1">
          <mxGeometry x="1306" y="300" width="60" height="30" as="geometry" />
        </mxCell>
        <mxCell id="35H73iDrwtsZgHUkn6E4-52" style="edgeStyle=orthogonalEdgeStyle;rounded=0;orthogonalLoop=1;jettySize=auto;html=1;exitX=1;exitY=0.5;exitDx=0;exitDy=0;entryX=1;entryY=0.5;entryDx=0;entryDy=0;" edge="1" parent="1" source="35H73iDrwtsZgHUkn6E4-32" target="35H73iDrwtsZgHUkn6E4-24">
          <mxGeometry relative="1" as="geometry">
            <Array as="points">
              <mxPoint x="2210" y="415" />
              <mxPoint x="2210" y="255" />
            </Array>
          </mxGeometry>
        </mxCell>
        <mxCell id="35H73iDrwtsZgHUkn6E4-62" style="edgeStyle=orthogonalEdgeStyle;rounded=0;orthogonalLoop=1;jettySize=auto;html=1;exitX=0.5;exitY=1;exitDx=0;exitDy=0;entryX=1;entryY=0.5;entryDx=0;entryDy=0;fillColor=#f8cecc;strokeColor=#b85450;" edge="1" parent="1" source="35H73iDrwtsZgHUkn6E4-32" target="35H73iDrwtsZgHUkn6E4-24">
          <mxGeometry relative="1" as="geometry">
            <Array as="points">
              <mxPoint x="2117" y="580" />
              <mxPoint x="2280" y="580" />
              <mxPoint x="2280" y="255" />
            </Array>
          </mxGeometry>
        </mxCell>
        <mxCell id="35H73iDrwtsZgHUkn6E4-32" value="Open V1" style="ellipse;whiteSpace=wrap;html=1;aspect=fixed;" vertex="1" parent="1">
          <mxGeometry x="2077" y="375" width="80" height="80" as="geometry" />
        </mxCell>
        <mxCell id="35H73iDrwtsZgHUkn6E4-35" value="P &amp;gt; FP1" style="text;html=1;align=center;verticalAlign=middle;whiteSpace=wrap;rounded=0;" vertex="1" parent="1">
          <mxGeometry x="2147" y="380" width="60" height="30" as="geometry" />
        </mxCell>
        <mxCell id="35H73iDrwtsZgHUkn6E4-36" value="Close V1 V2 V3" style="text;html=1;align=center;verticalAlign=middle;whiteSpace=wrap;rounded=0;" vertex="1" parent="1">
          <mxGeometry x="1956" y="185" width="90" height="30" as="geometry" />
        </mxCell>
        <mxCell id="35H73iDrwtsZgHUkn6E4-39" value="" style="endArrow=classic;html=1;rounded=0;exitX=1;exitY=1;exitDx=0;exitDy=0;entryX=0.5;entryY=0;entryDx=0;entryDy=0;" edge="1" parent="1" source="35H73iDrwtsZgHUkn6E4-24" target="35H73iDrwtsZgHUkn6E4-32">
          <mxGeometry width="50" height="50" relative="1" as="geometry">
            <mxPoint x="1900" y="610" as="sourcePoint" />
            <mxPoint x="1950" y="560" as="targetPoint" />
          </mxGeometry>
        </mxCell>
        <mxCell id="35H73iDrwtsZgHUkn6E4-53" style="edgeStyle=orthogonalEdgeStyle;rounded=0;orthogonalLoop=1;jettySize=auto;html=1;exitX=0.5;exitY=1;exitDx=0;exitDy=0;entryX=1;entryY=0.5;entryDx=0;entryDy=0;" edge="1" parent="1" source="35H73iDrwtsZgHUkn6E4-41" target="35H73iDrwtsZgHUkn6E4-24">
          <mxGeometry relative="1" as="geometry">
            <Array as="points">
              <mxPoint x="1996" y="480" />
              <mxPoint x="2210" y="480" />
              <mxPoint x="2210" y="255" />
            </Array>
          </mxGeometry>
        </mxCell>
        <mxCell id="35H73iDrwtsZgHUkn6E4-63" style="edgeStyle=orthogonalEdgeStyle;rounded=0;orthogonalLoop=1;jettySize=auto;html=1;exitX=0;exitY=0.5;exitDx=0;exitDy=0;entryX=1;entryY=0.5;entryDx=0;entryDy=0;fillColor=#f8cecc;strokeColor=#b85450;" edge="1" parent="1" source="35H73iDrwtsZgHUkn6E4-41" target="35H73iDrwtsZgHUkn6E4-24">
          <mxGeometry relative="1" as="geometry">
            <Array as="points">
              <mxPoint x="1920" y="420" />
              <mxPoint x="1920" y="580" />
              <mxPoint x="2280" y="580" />
              <mxPoint x="2280" y="255" />
            </Array>
          </mxGeometry>
        </mxCell>
        <mxCell id="35H73iDrwtsZgHUkn6E4-41" value="" style="ellipse;whiteSpace=wrap;html=1;aspect=fixed;" vertex="1" parent="1">
          <mxGeometry x="1956" y="380" width="80" height="80" as="geometry" />
        </mxCell>
        <mxCell id="35H73iDrwtsZgHUkn6E4-42" value="&lt;font color=&quot;#0000ff&quot;&gt;Exec Prog1&lt;/font&gt;" style="text;html=1;align=center;verticalAlign=middle;whiteSpace=wrap;rounded=0;" vertex="1" parent="1">
          <mxGeometry x="2068" y="300" width="60" height="30" as="geometry" />
        </mxCell>
        <mxCell id="35H73iDrwtsZgHUkn6E4-44" value="&lt;font color=&quot;#0000ff&quot;&gt;Exec Prog3&lt;/font&gt;" style="text;html=1;align=center;verticalAlign=middle;whiteSpace=wrap;rounded=0;" vertex="1" parent="1">
          <mxGeometry x="1990" y="330" width="60" height="30" as="geometry" />
        </mxCell>
        <mxCell id="35H73iDrwtsZgHUkn6E4-45" value="Open V3" style="text;html=1;align=center;verticalAlign=middle;whiteSpace=wrap;rounded=0;" vertex="1" parent="1">
          <mxGeometry x="1966" y="405" width="60" height="30" as="geometry" />
        </mxCell>
        <mxCell id="35H73iDrwtsZgHUkn6E4-47" value="P &amp;gt; FP3" style="text;html=1;align=center;verticalAlign=middle;whiteSpace=wrap;rounded=0;" vertex="1" parent="1">
          <mxGeometry x="2008" y="455" width="60" height="30" as="geometry" />
        </mxCell>
        <mxCell id="35H73iDrwtsZgHUkn6E4-58" style="edgeStyle=orthogonalEdgeStyle;rounded=0;orthogonalLoop=1;jettySize=auto;html=1;exitX=0;exitY=1;exitDx=0;exitDy=0;entryX=0;entryY=0;entryDx=0;entryDy=0;" edge="1" parent="1" source="35H73iDrwtsZgHUkn6E4-48" target="35H73iDrwtsZgHUkn6E4-54">
          <mxGeometry relative="1" as="geometry" />
        </mxCell>
        <mxCell id="35H73iDrwtsZgHUkn6E4-64" style="edgeStyle=orthogonalEdgeStyle;rounded=0;orthogonalLoop=1;jettySize=auto;html=1;exitX=1;exitY=0.5;exitDx=0;exitDy=0;entryX=1;entryY=0.5;entryDx=0;entryDy=0;fontColor=#FF0000;fillColor=#f8cecc;strokeColor=#b85450;" edge="1" parent="1" source="35H73iDrwtsZgHUkn6E4-48" target="35H73iDrwtsZgHUkn6E4-24">
          <mxGeometry relative="1" as="geometry">
            <Array as="points">
              <mxPoint x="1920" y="420" />
              <mxPoint x="1920" y="580" />
              <mxPoint x="2280" y="580" />
              <mxPoint x="2280" y="255" />
            </Array>
          </mxGeometry>
        </mxCell>
        <mxCell id="35H73iDrwtsZgHUkn6E4-48" value="Open V2" style="ellipse;whiteSpace=wrap;html=1;aspect=fixed;" vertex="1" parent="1">
          <mxGeometry x="1774" y="380" width="80" height="80" as="geometry" />
        </mxCell>
        <mxCell id="35H73iDrwtsZgHUkn6E4-49" value="" style="endArrow=classic;html=1;rounded=0;exitX=0;exitY=1;exitDx=0;exitDy=0;entryX=0.5;entryY=0;entryDx=0;entryDy=0;" edge="1" parent="1" source="35H73iDrwtsZgHUkn6E4-24" target="35H73iDrwtsZgHUkn6E4-48">
          <mxGeometry width="50" height="50" relative="1" as="geometry">
            <mxPoint x="1900" y="610" as="sourcePoint" />
            <mxPoint x="1950" y="560" as="targetPoint" />
          </mxGeometry>
        </mxCell>
        <mxCell id="35H73iDrwtsZgHUkn6E4-50" value="&lt;font color=&quot;#0000ff&quot;&gt;Exec Prog2&lt;/font&gt;" style="text;html=1;align=center;verticalAlign=middle;whiteSpace=wrap;rounded=0;" vertex="1" parent="1">
          <mxGeometry x="1836" y="300" width="60" height="30" as="geometry" />
        </mxCell>
        <mxCell id="35H73iDrwtsZgHUkn6E4-59" style="edgeStyle=orthogonalEdgeStyle;rounded=0;orthogonalLoop=1;jettySize=auto;html=1;exitX=1;exitY=0;exitDx=0;exitDy=0;entryX=1;entryY=1;entryDx=0;entryDy=0;" edge="1" parent="1" source="35H73iDrwtsZgHUkn6E4-54" target="35H73iDrwtsZgHUkn6E4-48">
          <mxGeometry relative="1" as="geometry" />
        </mxCell>
        <mxCell id="35H73iDrwtsZgHUkn6E4-67" style="edgeStyle=orthogonalEdgeStyle;rounded=0;orthogonalLoop=1;jettySize=auto;html=1;exitX=1;exitY=0.5;exitDx=0;exitDy=0;entryX=1;entryY=0.5;entryDx=0;entryDy=0;fontColor=#FF0000;fillColor=#f8cecc;strokeColor=#b85450;" edge="1" parent="1" source="35H73iDrwtsZgHUkn6E4-54" target="35H73iDrwtsZgHUkn6E4-24">
          <mxGeometry relative="1" as="geometry">
            <Array as="points">
              <mxPoint x="2280" y="580" />
              <mxPoint x="2280" y="255" />
            </Array>
          </mxGeometry>
        </mxCell>
        <mxCell id="35H73iDrwtsZgHUkn6E4-54" value="" style="ellipse;whiteSpace=wrap;html=1;aspect=fixed;" vertex="1" parent="1">
          <mxGeometry x="1774" y="540" width="80" height="80" as="geometry" />
        </mxCell>
        <mxCell id="35H73iDrwtsZgHUkn6E4-55" value="Close V2" style="text;html=1;align=center;verticalAlign=middle;whiteSpace=wrap;rounded=0;" vertex="1" parent="1">
          <mxGeometry x="1784" y="620" width="60" height="30" as="geometry" />
        </mxCell>
        <mxCell id="35H73iDrwtsZgHUkn6E4-56" value="" style="ellipse;whiteSpace=wrap;html=1;aspect=fixed;" vertex="1" parent="1">
          <mxGeometry x="1784" y="550" width="60" height="60" as="geometry" />
        </mxCell>
        <mxCell id="35H73iDrwtsZgHUkn6E4-57" value="&lt;font color=&quot;#ff0000&quot;&gt;Stop&lt;/font&gt;" style="text;html=1;align=center;verticalAlign=middle;whiteSpace=wrap;rounded=0;" vertex="1" parent="1">
          <mxGeometry x="1784" y="565" width="60" height="30" as="geometry" />
        </mxCell>
        <mxCell id="35H73iDrwtsZgHUkn6E4-60" value="P &amp;gt; FP2&lt;br&gt;and&lt;br&gt;L &amp;lt; FL1" style="text;html=1;align=center;verticalAlign=middle;whiteSpace=wrap;rounded=0;" vertex="1" parent="1">
          <mxGeometry x="1717" y="480" width="60" height="30" as="geometry" />
        </mxCell>
        <mxCell id="35H73iDrwtsZgHUkn6E4-61" value="&lt;font color=&quot;#0000ff&quot;&gt;Resume cmd&lt;/font&gt;" style="text;html=1;align=center;verticalAlign=middle;whiteSpace=wrap;rounded=0;" vertex="1" parent="1">
          <mxGeometry x="1844" y="485" width="60" height="30" as="geometry" />
        </mxCell>
        <mxCell id="35H73iDrwtsZgHUkn6E4-68" value="&lt;font color=&quot;#0000ff&quot;&gt;Stop cmd&lt;/font&gt;" style="text;html=1;align=center;verticalAlign=middle;whiteSpace=wrap;rounded=0;" vertex="1" parent="1">
          <mxGeometry x="1855" y="585" width="60" height="30" as="geometry" />
        </mxCell>
        <mxCell id="35H73iDrwtsZgHUkn6E4-69" value="&lt;font color=&quot;#0000ff&quot;&gt;Stop cmd&lt;/font&gt;" style="text;html=1;align=center;verticalAlign=middle;whiteSpace=wrap;rounded=0;" vertex="1" parent="1">
          <mxGeometry x="1880" y="390" width="60" height="30" as="geometry" />
        </mxCell>
        <mxCell id="35H73iDrwtsZgHUkn6E4-70" value="&lt;font color=&quot;#0000ff&quot;&gt;Stop cmd&lt;/font&gt;" style="text;html=1;align=center;verticalAlign=middle;whiteSpace=wrap;rounded=0;" vertex="1" parent="1">
          <mxGeometry x="2130" y="550" width="60" height="30" as="geometry" />
        </mxCell>
        <mxCell id="GEiW-WDxAi_3bmVZmIAf-1" value="&lt;font color=&quot;#ff0000&quot;&gt;Finish&lt;/font&gt;" style="text;html=1;align=center;verticalAlign=middle;whiteSpace=wrap;rounded=0;" vertex="1" parent="1">
          <mxGeometry x="1400" y="320" width="60" height="30" as="geometry" />
        </mxCell>
        <mxCell id="GEiW-WDxAi_3bmVZmIAf-2" value="&lt;font color=&quot;#ff0000&quot;&gt;Finish&lt;/font&gt;" style="text;html=1;align=center;verticalAlign=middle;whiteSpace=wrap;rounded=0;" vertex="1" parent="1">
          <mxGeometry x="2157" y="450" width="60" height="30" as="geometry" />
        </mxCell>
        <mxCell id="GEiW-WDxAi_3bmVZmIAf-5" style="edgeStyle=orthogonalEdgeStyle;rounded=0;orthogonalLoop=1;jettySize=auto;html=1;exitX=0;exitY=0.5;exitDx=0;exitDy=0;entryX=1;entryY=0.5;entryDx=0;entryDy=0;fillColor=#f8cecc;strokeColor=#000000;" edge="1" parent="1" source="35H73iDrwtsZgHUkn6E4-48" target="35H73iDrwtsZgHUkn6E4-24">
          <mxGeometry relative="1" as="geometry">
            <mxPoint x="1640" y="460" as="sourcePoint" />
            <Array as="points">
              <mxPoint x="1700" y="420" />
              <mxPoint x="1700" y="660" />
              <mxPoint x="2280" y="660" />
              <mxPoint x="2280" y="255" />
            </Array>
          </mxGeometry>
        </mxCell>
        <mxCell id="GEiW-WDxAi_3bmVZmIAf-6" value="L &amp;gt; FL2" style="text;html=1;align=center;verticalAlign=middle;whiteSpace=wrap;rounded=0;" vertex="1" parent="1">
          <mxGeometry x="1700" y="390" width="60" height="30" as="geometry" />
        </mxCell>
        <mxCell id="GEiW-WDxAi_3bmVZmIAf-7" value="&lt;font color=&quot;#ff0000&quot;&gt;Finish&lt;/font&gt;" style="text;html=1;align=center;verticalAlign=middle;whiteSpace=wrap;rounded=0;" vertex="1" parent="1">
          <mxGeometry x="1640" y="470" width="60" height="30" as="geometry" />
        </mxCell>
      </root>
    </mxGraphModel>
  </diagram>
</mxfile>
